<?xml version="1.0" encoding="utf-8"?>
<!-- Generator: Adobe Illustrator 19.0.0, SVG Export Plug-In . SVG Version: 6.00 Build 0)  -->
<svg version="1.1" id="Layer_1" xmlns="http://www.w3.org/2000/svg" xmlns:xlink="http://www.w3.org/1999/xlink" x="0px" y="0px"
	 viewBox="0 0 50 40" style="enable-background:new 0 0 50 40;" xml:space="preserve">
<style type="text/css">
	.st0{filter:url(#Adobe_OpacityMaskFilter);}
	.st1{filter:url(#Adobe_OpacityMaskFilter_1_);}
	.st2{mask:url(#XMLID_334_);fill:url(#XMLID_335_);}
	.st3{fill:url(#XMLID_336_);}
	.st4{fill:#010101;}
	.st5{fill:#674219;}
	.st6{fill:url(#XMLID_338_);}
	.st7{clip-path:url(#XMLID_340_);fill:#FFFFFF;}
	.st8{opacity:0.42;clip-path:url(#XMLID_340_);fill:#DC9227;}
	.st9{fill:#FFFFFF;}
	.st10{fill:url(#XMLID_341_);}
	.st11{clip-path:url(#XMLID_343_);fill:#FFFFFF;}
	.st12{opacity:0.42;clip-path:url(#XMLID_343_);fill:#DC9227;}
	.st13{fill:url(#XMLID_344_);}
	.st14{clip-path:url(#XMLID_346_);fill:#FFFFFF;}
	.st15{opacity:0.42;clip-path:url(#XMLID_346_);fill:#DC9227;}
	.st16{fill:url(#XMLID_347_);}
	.st17{opacity:0.42;fill:#DC9227;}
	.st18{opacity:0.42;fill:#86949C;}
	.st19{fill:#231F20;}
	.st20{fill:url(#XMLID_348_);}
	.st21{fill:url(#XMLID_349_);}
	.st22{fill:url(#XMLID_350_);}
	.st23{clip-path:url(#XMLID_351_);fill:#9CABA4;}
	.st24{clip-path:url(#XMLID_351_);fill:#9EACA5;}
	.st25{clip-path:url(#XMLID_351_);fill:#9EADA6;}
	.st26{clip-path:url(#XMLID_351_);fill:#A0AEA7;}
	.st27{clip-path:url(#XMLID_351_);fill:#A1AFA8;}
	.st28{clip-path:url(#XMLID_351_);fill:#A2AFA9;}
	.st29{clip-path:url(#XMLID_351_);fill:#A3AFA9;}
	.st30{clip-path:url(#XMLID_351_);fill:#A3B1AB;}
	.st31{clip-path:url(#XMLID_351_);fill:#A4B2AC;}
	.st32{clip-path:url(#XMLID_351_);fill:#A6B3AC;}
	.st33{clip-path:url(#XMLID_351_);fill:#A7B4AD;}
	.st34{clip-path:url(#XMLID_351_);fill:#A8B4AE;}
	.st35{clip-path:url(#XMLID_351_);fill:#A7B5AF;}
	.st36{clip-path:url(#XMLID_351_);fill:#A8B6B0;}
	.st37{clip-path:url(#XMLID_351_);fill:#A9B6B1;}
	.st38{clip-path:url(#XMLID_351_);fill:#ABB7B2;}
	.st39{clip-path:url(#XMLID_351_);fill:#ACB8B3;}
	.st40{clip-path:url(#XMLID_351_);fill:#ADB9B4;}
	.st41{clip-path:url(#XMLID_351_);fill:#ADBAB5;}
	.st42{clip-path:url(#XMLID_351_);fill:#AEBBB6;}
	.st43{clip-path:url(#XMLID_351_);fill:#AFBCB7;}
	.st44{clip-path:url(#XMLID_351_);fill:#B1BDB8;}
	.st45{clip-path:url(#XMLID_351_);fill:#B2BEB9;}
	.st46{clip-path:url(#XMLID_351_);fill:#B2BEBA;}
	.st47{clip-path:url(#XMLID_351_);fill:#B3BFBB;}
	.st48{clip-path:url(#XMLID_351_);fill:#B4C0BC;}
	.st49{clip-path:url(#XMLID_351_);fill:#B5C1BD;}
	.st50{clip-path:url(#XMLID_351_);fill:#B6C2BE;}
	.st51{clip-path:url(#XMLID_351_);fill:#B7C3BF;}
	.st52{clip-path:url(#XMLID_351_);fill:#B8C4C0;}
	.st53{clip-path:url(#XMLID_351_);fill:#B9C5C1;}
	.st54{clip-path:url(#XMLID_351_);fill:#BAC6C2;}
	.st55{clip-path:url(#XMLID_351_);fill:#BBC6C3;}
	.st56{clip-path:url(#XMLID_351_);fill:#BCC7C4;}
	.st57{clip-path:url(#XMLID_351_);fill:#BCC8C5;}
	.st58{clip-path:url(#XMLID_351_);fill:#BDC9C6;}
	.st59{clip-path:url(#XMLID_351_);fill:#BDCAC7;}
	.st60{clip-path:url(#XMLID_351_);fill:#BFCBC8;}
	.st61{clip-path:url(#XMLID_351_);fill:#C0CCC9;}
	.st62{clip-path:url(#XMLID_351_);fill:#C1CDCA;}
	.st63{clip-path:url(#XMLID_351_);fill:#C2CECB;}
	.st64{clip-path:url(#XMLID_351_);fill:#C3CECC;}
	.st65{clip-path:url(#XMLID_351_);fill:#C4D0CD;}
	.st66{clip-path:url(#XMLID_351_);fill:#C5D1CF;}
	.st67{clip-path:url(#XMLID_351_);fill:#C6D2D0;}
	.st68{clip-path:url(#XMLID_351_);fill:#C8D3D2;}
	.st69{clip-path:url(#XMLID_351_);fill:#C9D3D3;}
	.st70{clip-path:url(#XMLID_351_);fill:#CAD4D4;}
	.st71{clip-path:url(#XMLID_351_);fill:#CBD6D5;}
	.st72{clip-path:url(#XMLID_351_);fill:#CCD7D5;}
	.st73{clip-path:url(#XMLID_351_);fill:#CDD7D6;}
	.st74{clip-path:url(#XMLID_351_);fill:#CED8D8;}
	.st75{clip-path:url(#XMLID_351_);fill:#CFD9D9;}
	.st76{clip-path:url(#XMLID_351_);fill:#D0DAD9;}
	.st77{clip-path:url(#XMLID_351_);fill:#D1DBDA;}
	.st78{clip-path:url(#XMLID_351_);fill:#D2DCDB;}
	.st79{clip-path:url(#XMLID_351_);fill:#D3DCDC;}
	.st80{clip-path:url(#XMLID_351_);fill:#D3DEDD;}
	.st81{clip-path:url(#XMLID_351_);fill:#D3DEDE;}
	.st82{clip-path:url(#XMLID_351_);fill:#D5DEDF;}
	.st83{clip-path:url(#XMLID_351_);fill:#D5E0E0;}
	.st84{clip-path:url(#XMLID_351_);fill:#D6E0E1;}
	.st85{clip-path:url(#XMLID_351_);fill:#D7E1E2;}
	.st86{clip-path:url(#XMLID_351_);fill:#D8E2E3;}
	.st87{clip-path:url(#XMLID_351_);fill:#D9E3E4;}
	.st88{clip-path:url(#XMLID_351_);fill:#DAE4E5;}
	.st89{clip-path:url(#XMLID_351_);fill:#DBE5E6;}
	.st90{clip-path:url(#XMLID_351_);fill:#DCE6E6;}
	.st91{clip-path:url(#XMLID_351_);fill:#DDE6E8;}
	.st92{clip-path:url(#XMLID_351_);fill:#DEE7E9;}
	.st93{clip-path:url(#XMLID_351_);fill:#DFE8EA;}
	.st94{clip-path:url(#XMLID_351_);fill:#E0E9EA;}
	.st95{clip-path:url(#XMLID_351_);fill:#E1E9EB;}
	.st96{clip-path:url(#XMLID_351_);fill:#E2EAEC;}
	.st97{clip-path:url(#XMLID_351_);fill:#E3ECEE;}
	.st98{clip-path:url(#XMLID_351_);fill:#E4EDEF;}
	.st99{clip-path:url(#XMLID_351_);fill:#E5EDEF;}
	.st100{clip-path:url(#XMLID_351_);fill:#E6EEF1;}
	.st101{clip-path:url(#XMLID_351_);fill:#E7EFF2;}
	.st102{clip-path:url(#XMLID_351_);fill:#E8F0F3;}
	.st103{clip-path:url(#XMLID_351_);fill:#E9F1F3;}
	.st104{clip-path:url(#XMLID_351_);fill:#EAF2F5;}
	.st105{clip-path:url(#XMLID_351_);fill:#EBF4F6;}
	.st106{clip-path:url(#XMLID_351_);fill:#ECF4F7;}
	.st107{clip-path:url(#XMLID_351_);fill:#EDF6F8;}
	.st108{clip-path:url(#XMLID_351_);fill:#EEF6F9;}
	.st109{clip-path:url(#XMLID_351_);fill:#EFF7FA;}
	.st110{clip-path:url(#XMLID_351_);fill:#F0F7FC;}
	.st111{clip-path:url(#XMLID_351_);fill:#F1F9FD;}
	.st112{clip-path:url(#XMLID_351_);fill:#F2FAFE;}
	.st113{clip-path:url(#XMLID_351_);fill:#F3FAFE;}
	.st114{clip-path:url(#XMLID_352_);fill:#9CABA4;}
	.st115{clip-path:url(#XMLID_352_);fill:#9EACA5;}
	.st116{clip-path:url(#XMLID_352_);fill:#9EADA6;}
	.st117{clip-path:url(#XMLID_352_);fill:#A0AEA7;}
	.st118{clip-path:url(#XMLID_352_);fill:#A1AFA8;}
	.st119{clip-path:url(#XMLID_352_);fill:#A2AFA9;}
	.st120{clip-path:url(#XMLID_352_);fill:#A3AFA9;}
	.st121{clip-path:url(#XMLID_352_);fill:#A3B1AB;}
	.st122{clip-path:url(#XMLID_352_);fill:#A4B2AC;}
	.st123{clip-path:url(#XMLID_352_);fill:#A6B3AC;}
	.st124{clip-path:url(#XMLID_352_);fill:#A7B4AD;}
	.st125{clip-path:url(#XMLID_352_);fill:#A8B4AE;}
	.st126{clip-path:url(#XMLID_352_);fill:#A7B5AF;}
	.st127{clip-path:url(#XMLID_352_);fill:#A8B6B0;}
	.st128{clip-path:url(#XMLID_352_);fill:#A9B6B1;}
	.st129{clip-path:url(#XMLID_352_);fill:#ABB7B2;}
	.st130{clip-path:url(#XMLID_352_);fill:#ACB8B3;}
	.st131{clip-path:url(#XMLID_352_);fill:#ADB9B4;}
	.st132{clip-path:url(#XMLID_352_);fill:#ADBAB5;}
	.st133{clip-path:url(#XMLID_352_);fill:#AEBBB6;}
	.st134{clip-path:url(#XMLID_352_);fill:#AFBCB7;}
	.st135{clip-path:url(#XMLID_352_);fill:#B1BDB8;}
	.st136{clip-path:url(#XMLID_352_);fill:#B2BEB9;}
	.st137{clip-path:url(#XMLID_352_);fill:#B2BEBA;}
	.st138{clip-path:url(#XMLID_352_);fill:#B3BFBB;}
	.st139{clip-path:url(#XMLID_352_);fill:#B4C0BC;}
	.st140{clip-path:url(#XMLID_352_);fill:#B5C1BD;}
	.st141{clip-path:url(#XMLID_352_);fill:#B6C2BE;}
	.st142{clip-path:url(#XMLID_352_);fill:#B7C3BF;}
	.st143{clip-path:url(#XMLID_352_);fill:#B8C4C0;}
	.st144{clip-path:url(#XMLID_352_);fill:#B9C5C1;}
	.st145{clip-path:url(#XMLID_352_);fill:#BAC6C2;}
	.st146{clip-path:url(#XMLID_352_);fill:#BBC6C3;}
	.st147{clip-path:url(#XMLID_352_);fill:#BCC7C4;}
	.st148{clip-path:url(#XMLID_352_);fill:#BCC8C5;}
	.st149{clip-path:url(#XMLID_352_);fill:#BDC9C6;}
	.st150{clip-path:url(#XMLID_352_);fill:#BDCAC7;}
	.st151{clip-path:url(#XMLID_352_);fill:#BFCBC8;}
	.st152{clip-path:url(#XMLID_352_);fill:#C0CCC9;}
	.st153{clip-path:url(#XMLID_352_);fill:#C1CDCA;}
	.st154{clip-path:url(#XMLID_352_);fill:#C2CECB;}
	.st155{clip-path:url(#XMLID_352_);fill:#C3CECC;}
	.st156{clip-path:url(#XMLID_352_);fill:#C4D0CD;}
	.st157{clip-path:url(#XMLID_352_);fill:#C5D1CF;}
	.st158{clip-path:url(#XMLID_352_);fill:#C6D2D0;}
	.st159{clip-path:url(#XMLID_352_);fill:#C8D3D2;}
	.st160{clip-path:url(#XMLID_352_);fill:#C9D3D3;}
	.st161{clip-path:url(#XMLID_352_);fill:#CAD4D4;}
	.st162{clip-path:url(#XMLID_352_);fill:#CBD6D5;}
	.st163{clip-path:url(#XMLID_352_);fill:#CCD7D5;}
	.st164{clip-path:url(#XMLID_352_);fill:#CDD7D6;}
	.st165{clip-path:url(#XMLID_352_);fill:#CED8D8;}
	.st166{clip-path:url(#XMLID_352_);fill:#CFD9D9;}
	.st167{clip-path:url(#XMLID_352_);fill:#D0DAD9;}
	.st168{clip-path:url(#XMLID_352_);fill:#D1DBDA;}
	.st169{clip-path:url(#XMLID_352_);fill:#D2DCDB;}
	.st170{clip-path:url(#XMLID_352_);fill:#D3DCDC;}
	.st171{clip-path:url(#XMLID_352_);fill:#D3DEDD;}
	.st172{clip-path:url(#XMLID_352_);fill:#D3DEDE;}
	.st173{clip-path:url(#XMLID_352_);fill:#D5DEDF;}
	.st174{clip-path:url(#XMLID_352_);fill:#D5E0E0;}
	.st175{clip-path:url(#XMLID_352_);fill:#D6E0E1;}
	.st176{clip-path:url(#XMLID_352_);fill:#D7E1E2;}
	.st177{clip-path:url(#XMLID_352_);fill:#D8E2E3;}
	.st178{clip-path:url(#XMLID_352_);fill:#D9E3E4;}
	.st179{clip-path:url(#XMLID_352_);fill:#DAE4E5;}
	.st180{clip-path:url(#XMLID_352_);fill:#DBE5E6;}
	.st181{clip-path:url(#XMLID_352_);fill:#DCE6E6;}
	.st182{clip-path:url(#XMLID_352_);fill:#DDE6E8;}
	.st183{clip-path:url(#XMLID_352_);fill:#DEE7E9;}
	.st184{clip-path:url(#XMLID_352_);fill:#DFE8EA;}
	.st185{clip-path:url(#XMLID_352_);fill:#E0E9EA;}
	.st186{clip-path:url(#XMLID_352_);fill:#E1E9EB;}
	.st187{clip-path:url(#XMLID_352_);fill:#E2EAEC;}
	.st188{clip-path:url(#XMLID_352_);fill:#E3ECEE;}
	.st189{clip-path:url(#XMLID_352_);fill:#E4EDEF;}
	.st190{clip-path:url(#XMLID_352_);fill:#E5EDEF;}
	.st191{clip-path:url(#XMLID_352_);fill:#E6EEF1;}
	.st192{clip-path:url(#XMLID_352_);fill:#E7EFF2;}
	.st193{clip-path:url(#XMLID_352_);fill:#E8F0F3;}
	.st194{clip-path:url(#XMLID_352_);fill:#E9F1F3;}
	.st195{clip-path:url(#XMLID_352_);fill:#EAF2F5;}
	.st196{clip-path:url(#XMLID_352_);fill:#EBF4F6;}
	.st197{clip-path:url(#XMLID_352_);fill:#ECF4F7;}
	.st198{clip-path:url(#XMLID_352_);fill:#EDF6F8;}
	.st199{clip-path:url(#XMLID_352_);fill:#EEF6F9;}
	.st200{clip-path:url(#XMLID_352_);fill:#EFF7FA;}
	.st201{clip-path:url(#XMLID_352_);fill:#F0F7FC;}
	.st202{clip-path:url(#XMLID_352_);fill:#F1F9FD;}
	.st203{clip-path:url(#XMLID_352_);fill:#F2FAFE;}
	.st204{clip-path:url(#XMLID_352_);fill:#F3FAFE;}
	.st205{opacity:0.75;}
	.st206{fill:url(#XMLID_353_);}
	.st207{fill:url(#XMLID_354_);}
	.st208{fill:url(#XMLID_355_);}
	.st209{fill:url(#XMLID_356_);}
	.st210{fill:url(#XMLID_357_);}
	.st211{fill:url(#XMLID_358_);}
	.st212{fill:url(#XMLID_359_);}
	.st213{fill:url(#XMLID_360_);}
	.st214{fill:url(#XMLID_361_);}
	.st215{fill:url(#XMLID_362_);}
	.st216{fill:url(#XMLID_363_);}
	.st217{fill:url(#XMLID_364_);}
	.st218{fill:#D5E7F0;}
	.st219{fill:url(#XMLID_365_);}
	.st220{fill:url(#XMLID_366_);}
	.st221{fill:url(#XMLID_367_);}
	.st222{fill:url(#XMLID_368_);}
	.st223{fill:url(#XMLID_369_);}
	.st224{fill:url(#XMLID_370_);}
	.st225{fill:url(#XMLID_371_);}
	.st226{fill:url(#XMLID_372_);}
	.st227{fill:url(#XMLID_373_);}
	.st228{fill:url(#XMLID_374_);}
	.st229{fill:url(#XMLID_375_);}
	.st230{fill:url(#XMLID_376_);}
</style>
<g id="XMLID_411_">
	<g id="XMLID_251_">
		<defs>
			<filter id="Adobe_OpacityMaskFilter" filterUnits="userSpaceOnUse" x="22.3" y="35.1" width="14.4" height="4">
				<feFlood  style="flood-color:white;flood-opacity:1" result="back"/>
				<feBlend  in="SourceGraphic" in2="back" mode="normal"/>
			</filter>
		</defs>
		<mask maskUnits="userSpaceOnUse" x="22.3" y="35.1" width="14.4" height="4" id="XMLID_334_">
			<g id="XMLID_681_" class="st0">
				<defs>
					<filter id="Adobe_OpacityMaskFilter_1_" filterUnits="userSpaceOnUse" x="22.3" y="35.1" width="14.4" height="4">
						<feFlood  style="flood-color:white;flood-opacity:1" result="back"/>
						<feBlend  in="SourceGraphic" in2="back" mode="normal"/>
					</filter>
				</defs>
				<mask maskUnits="userSpaceOnUse" x="22.3" y="35.1" width="14.4" height="4" id="XMLID_334_">
					<g id="XMLID_688_" class="st1">
					</g>
				</mask>
				<linearGradient id="XMLID_335_" gradientUnits="userSpaceOnUse" x1="22.2889" y1="37.1009" x2="36.6465" y2="37.1009">
					<stop  offset="1.176470e-002" style="stop-color:#000000"/>
					<stop  offset="1" style="stop-color:#FFFFFF"/>
				</linearGradient>
				<polygon id="XMLID_683_" class="st2" points="35.2,39.1 22.3,39.1 22.3,35.1 35.2,35.1 36.6,37.1 				"/>
			</g>
		</mask>
		<linearGradient id="XMLID_336_" gradientUnits="userSpaceOnUse" x1="22.2889" y1="37.1009" x2="36.6465" y2="37.1009">
			<stop  offset="1.176470e-002" style="stop-color:#FCEE23"/>
			<stop  offset="1" style="stop-color:#FFC614"/>
		</linearGradient>
		<polygon id="XMLID_337_" class="st3" points="35.2,39.1 22.3,39.1 22.3,35.1 35.2,35.1 36.6,37.1 		"/>
		<g id="XMLID_302_">
			<path id="XMLID_332_" class="st4" d="M23.2,38.4l-0.1,0c0,0-0.1,0-0.1,0c0,0,0,0,0-0.1c0,0,0-0.1,0-0.1c0,0,0,0,0.1,0
				c0,0,0.1,0,0.1-0.1c0-0.2,0-0.6,0-1c0-0.5-0.1-0.8,0-1l0-0.1c0-0.1,0-0.2-0.1-0.2l-0.1,0c-0.1,0-0.1,0-0.1-0.1
				c0-0.1,0.1-0.1,0.3-0.1c0.1,0,0.2,0,0.2,0.1c0,0.1,0,0.1,0,0.2c0,0.1,0,0.2,0,0.3c0,0.1,0,0.3,0,0.4c0,0.1,0,0.4,0,0.8
				c0,0.4,0,0.7,0,0.8l0,0c0.1,0,0.1,0,0.1,0v0c0.1,0,0.1,0,0.1,0.1C23.6,38.4,23.4,38.4,23.2,38.4z"/>
			<path id="XMLID_329_" class="st4" d="M23.7,36.3c0-0.3,0.1-0.5,0.2-0.5c0,0,0.1,0,0.1,0c0.3,0,0.5,0.6,0.5,1.8
				c0,0.6-0.1,0.9-0.4,0.9c-0.2,0-0.3-0.3-0.4-0.9C23.7,37.3,23.7,36.8,23.7,36.3z M23.9,36.7l0,0.3c0,0.4,0,0.7,0.1,0.9
				c0,0.2,0.1,0.3,0.2,0.3c0,0,0.1,0,0.1-0.1c0-0.1,0-0.2,0.1-0.3c0-0.2,0-0.3,0-0.4c0-0.1,0-0.2,0-0.3c0-0.1,0-0.2,0-0.3
				c0-0.1,0-0.3,0-0.4c0-0.1,0-0.2-0.1-0.3c-0.1-0.2-0.1-0.3-0.3-0.3c0,0-0.1,0.1-0.1,0.1c0,0,0,0.1,0,0.1L23.9,36.7z"/>
			<path id="XMLID_326_" class="st4" d="M24.8,36.3c0-0.3,0.1-0.5,0.2-0.5c0,0,0.1,0,0.1,0c0.3,0,0.5,0.6,0.5,1.8
				c0,0.6-0.1,0.9-0.4,0.9c-0.2,0-0.3-0.3-0.4-0.9C24.9,37.3,24.8,36.8,24.8,36.3z M25,36.7l0,0.3c0,0.4,0,0.7,0.1,0.9
				c0,0.2,0.1,0.3,0.2,0.3c0,0,0.1,0,0.1-0.1c0-0.1,0-0.2,0.1-0.3c0-0.2,0-0.3,0-0.4c0-0.1,0-0.2,0-0.3c0-0.1,0-0.2,0-0.3
				c0-0.1,0-0.3,0-0.4c0-0.1,0-0.2-0.1-0.3c-0.1-0.2-0.1-0.3-0.2-0.3c0,0-0.1,0.1-0.1,0.1c0,0,0,0.1,0,0.1L25,36.7z"/>
			<path id="XMLID_320_" class="st4" d="M26.6,36.5L26.6,36.5c0,0,0,0.1,0,0.3c0,0.1,0,0.2,0,0.3c0,0.1-0.1,0.2-0.3,0.2
				c-0.1,0-0.1,0-0.2-0.1c-0.1-0.1-0.1-0.1-0.1-0.2c0-0.1,0-0.1,0-0.1c0,0,0-0.1,0-0.1c0-0.1,0-0.1,0-0.2c0-0.1,0-0.1,0-0.2
				c0-0.1,0-0.1,0-0.2c0-0.1,0.1-0.1,0.1-0.2c0-0.1,0.1-0.1,0.1-0.1C26.4,35.8,26.6,36,26.6,36.5L26.6,36.5z M26.2,35.9
				c0,0-0.1,0.1-0.1,0.2c0,0.1,0,0.2,0,0.3c0,0,0,0.1,0,0.1c0,0,0,0.1,0,0.1c0,0.1,0,0.1,0,0.1c0,0,0,0.1,0,0.1
				c0,0.1,0.1,0.1,0.1,0.1c0.1,0,0.2-0.2,0.2-0.5C26.4,36.1,26.3,35.9,26.2,35.9z M26.9,36L26.9,36c0,0,0-0.1,0-0.1
				c0,0,0-0.1,0.1-0.1c0,0,0.1,0,0.1,0c0,0,0,0,0,0.1c0,0.2-0.1,0.6-0.3,1.4c-0.1,0.4-0.2,0.6-0.2,0.7c0,0.1,0,0.1,0,0.2
				c0,0,0,0.1,0,0.1c0,0.1-0.1,0.2-0.1,0.2c0,0-0.1-0.1-0.1-0.1c0-0.1,0-0.2,0-0.3c0-0.2,0.1-0.3,0.1-0.6c0.1-0.2,0.1-0.4,0.1-0.6
				C26.8,36.5,26.9,36.1,26.9,36z M27.4,38.4c-0.1,0-0.1,0.1-0.2,0.1c-0.1,0-0.1,0-0.1-0.1c0,0-0.1-0.1-0.1-0.1c0-0.1,0-0.1-0.1-0.2
				c0-0.1,0-0.2,0-0.3c0-0.1,0-0.1,0-0.1c0,0,0-0.1,0-0.1c0-0.1,0-0.1,0-0.1c0,0,0-0.1,0-0.1c0,0,0-0.1,0-0.1c0,0,0-0.1,0.1-0.1
				c0-0.1,0.1-0.1,0.2-0.1c0.1,0,0.2,0,0.2,0.1c0.1,0.1,0.1,0.1,0.1,0.2c0,0.1,0,0.2,0,0.3l0,0.2c0,0.2,0,0.3-0.1,0.4
				C27.5,38.3,27.4,38.3,27.4,38.4z M27.4,37.6c0-0.1,0-0.2,0-0.2c0-0.1-0.1-0.2-0.2-0.2c-0.1,0-0.1,0.1-0.1,0.3c0,0.1,0,0.2,0,0.3
				c0,0.1,0,0.2,0,0.3c0,0.1,0.1,0.2,0.1,0.2c0.1,0,0.2-0.2,0.2-0.5L27.4,37.6z"/>
			<path id="XMLID_318_" class="st4" d="M27.8,37l0-0.7c0-0.1,0-0.2,0.1-0.3v0c0,0,0,0,0,0c0.1,0,0.1,0.1,0.2,0.3
				c0.1,0.2,0.2,0.4,0.2,0.6c0.1,0.2,0.1,0.5,0.2,0.7c0.1,0.2,0.1,0.4,0.1,0.4c0-0.5,0.1-1.1,0.1-1.8l0-0.1c0-0.1,0-0.1,0.1-0.1
				c0,0,0.1,0,0.1,0c0,0,0,0.1,0,0.1l0,0.3c0,0.3,0,0.6,0,1.1c0,0.5-0.1,0.7-0.1,0.8c-0.1,0-0.1,0-0.1,0c0,0,0,0-0.1,0
				c0,0,0,0,0-0.1c0,0,0-0.1,0-0.1l0,0c0-0.1-0.1-0.4-0.2-0.8c-0.2-0.5-0.3-0.8-0.4-1l0,1.8c0,0,0,0,0,0c0,0,0,0,0,0.1
				c0,0,0,0,0,0.1c0,0,0,0-0.1,0c-0.1,0-0.1-0.1-0.1-0.2L27.8,37z"/>
			<path id="XMLID_315_" class="st4" d="M29.9,37.7l0,0.2c0,0,0,0.1,0,0.2c0,0.1,0,0.2,0,0.2v0c0,0.1,0,0.1-0.1,0.1c0,0-0.1,0-0.1,0
				c0,0,0,0,0-0.1c0-0.1,0-0.2,0-0.4l-0.3-0.1c0,0.1,0,0.2-0.1,0.3c0,0.1,0,0.2,0,0.2c0,0.1-0.1,0.1-0.1,0.1c0,0-0.1,0-0.1,0
				c0,0,0,0,0-0.1l0,0c0.2-0.6,0.3-1.2,0.4-1.8c0,0,0-0.1,0-0.1c0-0.2,0-0.3,0.1-0.3l0.1,0c0,0,0.1,0,0.1,0c0,0,0,0,0,0.1
				c0,0.2,0,0.4,0.1,0.8C29.9,37.3,29.9,37.6,29.9,37.7z M29.8,37.8c0,0,0-0.1,0-0.2c0-0.1,0-0.2,0-0.3c0-0.1,0-0.3,0-0.4
				c0-0.2,0-0.3,0-0.4c-0.1,0.6-0.2,1-0.2,1.3C29.5,37.8,29.6,37.8,29.8,37.8z"/>
			<path id="XMLID_313_" class="st4" d="M30.5,38.4l0-0.3c0,0,0,0,0-0.1c0,0,0-0.3-0.1-0.8c0-0.5,0-0.8,0-0.9c0,0,0,0,0,0
				c-0.2,0-0.3,0-0.3-0.1c0,0,0,0,0-0.1c0,0,0,0,0.1,0l0.5,0l0.1,0c0.1,0,0.1,0,0.1,0.1c0,0,0,0.1,0,0.1c0,0-0.1,0-0.1,0l-0.2,0l0,0
				c0,0.2,0,0.6,0.1,1c0,0.4,0.1,0.8,0.1,1c0,0,0,0.1,0,0.1C30.6,38.4,30.6,38.4,30.5,38.4L30.5,38.4z"/>
			<path id="XMLID_311_" class="st4" d="M31.8,36.9L31.8,36.9c0,1.1-0.2,1.6-0.5,1.6c-0.1,0-0.2,0-0.3-0.1c-0.1-0.1-0.1-0.2-0.1-0.3
				c0-0.2,0-0.3,0-0.5c0-0.2,0-0.5,0-0.8l0-0.5c0,0,0-0.1,0.1-0.1c0,0,0.1,0,0.1,0.1c0,0,0,0.1,0,0.1l0,1c0,0.1,0,0.2,0,0.4
				c0,0.2,0,0.3,0,0.4c0,0.2,0.1,0.3,0.2,0.3c0.2,0,0.3-0.6,0.3-1.9l0-0.2l0-0.1c0,0,0,0,0-0.1c0,0,0,0,0.1,0c0,0,0.1,0,0.1,0
				c0,0,0,0,0,0c0,0,0,0.1,0,0.1l0,0.4L31.8,36.9z"/>
			<path id="XMLID_308_" class="st4" d="M32.3,37.3l0,0.4c0,0.3,0,0.6,0.1,0.7l0,0.1l-0.1,0l0-0.1c0-0.1,0-0.2,0-0.4
				c0-0.1,0-0.4,0-0.8c0-0.4,0-0.8,0-1c0-0.1,0-0.2,0.1-0.2c0.1,0,0.2,0,0.3,0.1c0.1,0.1,0.1,0.2,0.1,0.3l0,0.2c0,0.1,0,0.1,0,0.2
				c0,0.1-0.1,0.1-0.1,0.2c0,0.1-0.1,0.1-0.1,0.1c0,0.1,0,0.2,0.1,0.3c0.1,0.4,0.1,0.6,0.2,0.8c0,0,0,0.1,0,0.1c0,0,0,0,0,0.1
				c0,0,0,0-0.1,0c0,0-0.1-0.1-0.1-0.2c0-0.1-0.1-0.2-0.1-0.4C32.4,37.5,32.3,37.3,32.3,37.3L32.3,37.3z M32.3,36.2L32.3,36.2
				c0,0.1,0,0.3,0,0.5c0,0.2,0,0.3,0,0.4c0.1,0,0.1-0.1,0.1-0.2c0-0.1,0.1-0.2,0.1-0.3c0-0.1,0-0.1,0-0.1c0,0,0-0.1,0-0.1
				C32.4,36.3,32.4,36.2,32.3,36.2z"/>
			<path id="XMLID_305_" class="st4" d="M33.7,37.7l0,0.2c0,0,0,0.1,0,0.2c0,0.1,0,0.2,0,0.2v0c0,0.1,0,0.1-0.1,0.1c0,0-0.1,0-0.1,0
				c0,0,0,0,0-0.1c0-0.1,0-0.2,0-0.4l-0.3-0.1c0,0.1,0,0.2-0.1,0.3c0,0.1,0,0.2,0,0.2c0,0.1-0.1,0.1-0.1,0.1c0,0-0.1,0-0.1,0
				c0,0,0,0,0-0.1l0,0c0.2-0.6,0.3-1.2,0.4-1.8c0,0,0-0.1,0-0.1c0-0.2,0-0.3,0.1-0.3l0.1,0c0,0,0.1,0,0.1,0c0,0,0,0,0,0.1
				c0,0.2,0,0.4,0.1,0.8C33.6,37.3,33.7,37.6,33.7,37.7z M33.5,37.8c0,0,0-0.1,0-0.2c0-0.1,0-0.2,0-0.3c0-0.1,0-0.3,0-0.4
				c0-0.2,0-0.3,0-0.4c-0.1,0.6-0.2,1-0.2,1.3C33.2,37.8,33.3,37.8,33.5,37.8z"/>
			<path id="XMLID_303_" class="st4" d="M34.2,36.5l0,0.9c0,0,0,0.1,0,0.1l0,0.1l0,0.6c0,0.2,0,0.2,0.1,0.2l0.1,0
				c0.1,0,0.2,0,0.2,0.1c0,0,0,0,0,0.1c0,0,0,0-0.1,0c-0.1,0-0.2,0-0.3,0c0,0-0.1,0-0.1,0c0,0-0.1,0-0.1,0c0,0,0-0.1,0-0.1
				c0-0.2,0-0.4,0-0.8c0-0.4,0-0.6,0-0.8v0c0-0.1,0-0.3,0-0.3c0-0.2,0-0.3,0.1-0.3c0,0,0,0,0.1,0c0,0,0,0,0,0.1L34.2,36.5z"/>
		</g>
		<g id="XMLID_271_">
			<path id="XMLID_301_" class="st5" d="M27.7,12.6c-0.7,0.5-1.5,1-2.3,1.4c-0.8,0.5-1.7,0.9-2.6,1.3c-0.3,0.2-0.7,0.4-1.1,0.3
				c-0.4-0.1-0.9-0.4-1.3-0.6c-1-0.5-2-0.9-2.9-1.5C17,13,15.8,11.6,15.3,13c-0.4,1,1.7,1.8,2.4,2.2c1,0.5,1.9,1,2.9,1.5
				c0.2,0.1,0.4,0.2,0.6,0.2c0,2.2-0.5,4.4-0.1,6.6c0.2,1,1.6,0.6,1.5-0.4c-0.3-2,0.1-4.1,0.1-6.2c0.1,0,0.1,0,0.2-0.1
				c2-0.7,3.7-2,5.5-3C29.5,13.3,28.1,12.3,27.7,12.6z"/>
			<g id="XMLID_294_">
				
					<linearGradient id="XMLID_338_" gradientUnits="userSpaceOnUse" x1="18.1626" y1="-235.4267" x2="25.8561" y2="-227.3788" gradientTransform="matrix(1 9.200000e-003 -9.200000e-003 1 -2.3809 239.846)">
					<stop  offset="0" style="stop-color:#FDB81E"/>
					<stop  offset="1" style="stop-color:#D37D28"/>
				</linearGradient>
				<polygon id="XMLID_300_" class="st6" points="28.6,12.8 22,16.5 15.4,12.7 15.5,5.1 22.1,1.3 28.6,5.2 				"/>
				<g id="XMLID_295_">
					<defs>
						<polygon id="XMLID_296_" points="28.1,12.5 22,16 15.8,12.4 15.9,5.3 22.1,1.8 28.2,5.4 						"/>
					</defs>
					
						<radialGradient id="XMLID_339_" cx="22.2763" cy="-231.123" r="6.6342" gradientTransform="matrix(1 9.200000e-003 -9.200000e-003 1 -2.3809 239.846)" gradientUnits="userSpaceOnUse">
						<stop  offset="0" style="stop-color:#FCEE23"/>
						<stop  offset="1" style="stop-color:#FFC614"/>
					</radialGradient>
					<use xlink:href="#XMLID_296_"  style="overflow:visible;fill:url(#XMLID_339_);"/>
					<clipPath id="XMLID_340_">
						<use xlink:href="#XMLID_296_"  style="overflow:visible;"/>
					</clipPath>
					<path id="XMLID_299_" class="st7" d="M18,10.4c-0.3,1.9,1.6,3.7,2.9,4.8c0.3,0.3,1.3,0.7,1.1,1.2c-0.8,0.3-1.5-0.2-2-0.7
						c-0.6-0.5-1.2-0.8-1.9-1.2c-0.9-0.6-2-1-2.7-1.9c-0.4-0.6-0.5-1.4-0.4-2.1c0.1-0.8,0.1-1.4,0.1-2.2c-0.1-1.5,0-2.7,0.7-4.1
						c0.6-1.1,2-1.8,3.1-2.3c0.9-0.4,1.9-0.6,2.9-0.5c0.8,0.1,1.5,0.6,2.1,1.1c0.6,0.4,1.4,0.7,1.8,1.2c0.7,1.1-1.8-0.2-2-0.2
						c-0.6,0-0.7,0.3-0.5,0.7c0.2,0.4,0.6,0.6,0,0.8c-0.8,0.3-1.8,0.1-2.6,0.4C19.3,5.8,18.1,6.5,18,8c0,0.3-0.1,0.7,0.1,1
						c0.1,0.3,0.5,0.5,0.5,0.8C18.2,9.7,18,10,18,10.4z"/>
					<path id="XMLID_298_" class="st7" d="M18,5.9c-0.4,0.3-0.6,0.7-0.6,1.3c0,0.5,0.2,1.8-0.3,2.1c-0.5,0.3-0.6-0.5-0.9,0.1
						c-0.1,0.3,0.1,3.2-0.8,2.3c-0.3-0.3-0.3-1.2-0.3-1.6c0-0.7,0-1.4-0.1-2.1c-0.1-1.1-0.4-2.8,0.4-3.7c0.7-0.8,1.7-1.3,2.7-1.7
						c0.9-0.3,1.8-0.8,2.8-1c0.4-0.1,2.1-0.4,1.4,0.4c-0.2,0.2-0.7,0.3-0.9,0.4c-0.3,0.2-0.7,0.4-1,0.6c-0.2,0.1-0.9,0.5-0.8,0.8
						c0.1,0.3,0.7-0.1,1,0.2c0.3,0.3-0.3,0.6-0.5,0.7C19.5,5.1,18.6,5.4,18,5.9z"/>
					<path id="XMLID_297_" class="st8" d="M30.2,9.7c0-1.3-0.3-2.3-1-3.3c-0.2-0.3-0.3-0.7-0.6-1c-0.2-0.2-1-0.4-1-0.5
						c0.2,0.4,0.6,0.6,0.3,1.1c-0.2,0.4-0.9,0.3-1.1,0.6c-0.2,0.4,0.7,0.4,0.8,0.8c0.2,0.5-0.3,0.8-0.7,0.9c0,0.3,0.1,0.2,0.2,0.3
						c0.2,0.4,0.4,0.5,0,1c-0.3,0.3-0.6,0.4-0.9,0.6c-0.1,0.1-0.9,0.5-0.6,0.7c0.2,0.1,0.8-0.3,1-0.3c0.9,0,0.7,1.3,0.4,1.8
						c-0.7,1.3-2.4,0.8-3.3,1.8c-0.3,0.3-0.3,0.7-0.5,1.1c-0.3,0.5-0.7,0.3-1.1,0.7c-0.7,0.5,0.1,1,0.7,0.7c0.8-0.3,1.6-1,2.4-1.4
						c1.2-0.6,2.5-1.1,3.5-1.9C29.8,12.4,30.2,10.9,30.2,9.7z"/>
				</g>
			</g>
			<path id="XMLID_293_" class="st9" d="M19.1,4.2c0.1,0.4-0.7,0.5-0.9,0.7c-0.4,0.2-0.9,0.4-1.2,0.8c-0.3,0.4-0.1,0.6-0.2,1
				c-0.1,0.3-0.3,0.7-0.4,1C16,7.5,16.1,6.3,16.2,6c0.2-0.5,0.8-0.7,1.1-1c-0.2,0-0.3,0-0.5,0C17,4.9,19,3.9,19.1,4.2z"/>
			<g id="XMLID_284_">
				<g id="XMLID_286_">
					
						<linearGradient id="XMLID_341_" gradientUnits="userSpaceOnUse" x1="11.8785" y1="-222.9716" x2="19.876" y2="-216.0876" gradientTransform="matrix(1 9.200000e-003 -9.200000e-003 1 -2.3809 239.846)">
						<stop  offset="0" style="stop-color:#FDB81E"/>
						<stop  offset="1" style="stop-color:#D37D28"/>
					</linearGradient>
					<polygon id="XMLID_292_" class="st10" points="21.9,24.2 15.3,27.9 8.7,24 8.8,16.4 15.4,12.7 21.9,16.6 					"/>
					<g id="XMLID_287_">
						<defs>
							<polygon id="XMLID_288_" points="21.4,23.9 15.3,27.4 9.2,23.8 9.2,16.7 15.4,13.2 21.5,16.8 							"/>
						</defs>
						
							<radialGradient id="XMLID_342_" cx="15.689" cy="-219.6918" r="6.6344" gradientTransform="matrix(1 9.200000e-003 -9.200000e-003 1 -2.3809 239.846)" gradientUnits="userSpaceOnUse">
							<stop  offset="0" style="stop-color:#FCEE23"/>
							<stop  offset="1" style="stop-color:#FFC614"/>
						</radialGradient>
						<use xlink:href="#XMLID_288_"  style="overflow:visible;fill:url(#XMLID_342_);"/>
						<clipPath id="XMLID_343_">
							<use xlink:href="#XMLID_288_"  style="overflow:visible;"/>
						</clipPath>
						<path id="XMLID_291_" class="st11" d="M11.3,21.7c-0.3,1.9,1.6,3.7,2.9,4.8c0.3,0.3,1.3,0.7,1.1,1.2c-0.8,0.3-1.5-0.2-2-0.7
							c-0.6-0.5-1.2-0.8-1.9-1.2c-0.9-0.6-2-1-2.7-1.9c-0.4-0.6-0.5-1.4-0.4-2.1c0.1-0.8,0.1-1.4,0.1-2.2c-0.1-1.5,0-2.7,0.7-4.1
							c0.6-1.1,2-1.8,3.1-2.3c0.9-0.4,1.9-0.6,2.9-0.5c0.8,0.1,1.5,0.6,2.1,1.1c0.6,0.4,1.4,0.7,1.8,1.2c0.7,1.1-1.8-0.2-2-0.2
							c-0.6,0-0.7,0.3-0.4,0.7c0.2,0.4,0.6,0.6,0,0.8c-0.8,0.3-1.8,0.1-2.6,0.4c-1.3,0.4-2.4,1.1-2.6,2.6c0,0.3-0.1,0.7,0.1,1
							c0.1,0.3,0.5,0.5,0.5,0.8C11.5,21,11.3,21.3,11.3,21.7z"/>
						<path id="XMLID_290_" class="st11" d="M11.3,17.3c-0.4,0.3-0.6,0.7-0.6,1.3c0,0.5,0.2,1.8-0.3,2.1C10,21,9.8,20.2,9.5,20.8
							c-0.1,0.3,0.1,3.2-0.8,2.3c-0.3-0.3-0.3-1.2-0.3-1.6c0-0.7,0-1.4-0.1-2.1c-0.1-1.1-0.4-2.8,0.4-3.7c0.7-0.8,1.7-1.3,2.7-1.7
							c0.9-0.3,1.8-0.8,2.8-1c0.4-0.1,2.1-0.4,1.4,0.4c-0.2,0.2-0.7,0.3-0.9,0.4c-0.3,0.2-0.6,0.4-1,0.6c-0.2,0.1-0.9,0.5-0.8,0.8
							c0.1,0.3,0.7-0.1,1,0.2c0.3,0.3-0.3,0.6-0.5,0.7C12.8,16.5,11.9,16.8,11.3,17.3z"/>
						<path id="XMLID_289_" class="st12" d="M23.5,21.1c0-1.3-0.3-2.3-1-3.3c-0.2-0.3-0.3-0.7-0.6-1c-0.2-0.2-1-0.4-1-0.5
							c0.2,0.4,0.6,0.6,0.3,1.1c-0.2,0.4-0.9,0.3-1.1,0.6c-0.2,0.4,0.7,0.4,0.8,0.8c0.2,0.5-0.3,0.8-0.7,0.9c0,0.3,0.1,0.2,0.2,0.3
							c0.2,0.4,0.4,0.5,0,1c-0.3,0.3-0.6,0.4-0.9,0.6c-0.1,0.1-0.9,0.5-0.6,0.7c0.2,0.1,0.8-0.3,1-0.3c0.9,0,0.7,1.3,0.4,1.8
							c-0.7,1.3-2.4,0.8-3.3,1.8c-0.3,0.3-0.3,0.7-0.5,1.1c-0.3,0.5-0.7,0.3-1.1,0.7c-0.7,0.5,0.1,1,0.7,0.7c0.8-0.3,1.6-1,2.4-1.4
							c1.2-0.6,2.5-1.1,3.5-1.9C23.2,23.7,23.5,22.3,23.5,21.1z"/>
					</g>
				</g>
				<path id="XMLID_285_" class="st9" d="M12.4,16.2c0.1,0.4-0.7,0.5-0.9,0.7c-0.4,0.2-0.9,0.4-1.2,0.8c-0.3,0.4-0.1,0.6-0.2,1
					c-0.1,0.3-0.3,0.7-0.4,1c-0.3-0.2-0.2-1.4-0.1-1.7c0.2-0.5,0.8-0.7,1.1-1c-0.2,0-0.3,0-0.5,0C10.3,16.8,12.3,15.9,12.4,16.2z"/>
			</g>
			<g id="XMLID_275_">
				<g id="XMLID_277_">
					
						<linearGradient id="XMLID_344_" gradientUnits="userSpaceOnUse" x1="24.6187" y1="-223.1116" x2="32.4137" y2="-216.835" gradientTransform="matrix(1 9.200000e-003 -9.200000e-003 1 -2.3809 239.846)">
						<stop  offset="0" style="stop-color:#FDB81E"/>
						<stop  offset="1" style="stop-color:#D37D28"/>
					</linearGradient>
					<polygon id="XMLID_283_" class="st13" points="35,24.3 28.4,28 21.9,24.2 22,16.6 28.6,12.8 35.1,16.7 					"/>
					<g id="XMLID_278_">
						<defs>
							<polygon id="XMLID_279_" points="34.6,24 28.4,27.5 22.3,23.9 22.4,16.8 28.6,13.3 34.7,16.9 							"/>
						</defs>
						
							<radialGradient id="XMLID_345_" cx="28.865" cy="-219.6924" r="6.6343" gradientTransform="matrix(1 9.200000e-003 -9.200000e-003 1 -2.3809 239.846)" gradientUnits="userSpaceOnUse">
							<stop  offset="0" style="stop-color:#FCEE23"/>
							<stop  offset="1" style="stop-color:#FFC614"/>
						</radialGradient>
						<use xlink:href="#XMLID_279_"  style="overflow:visible;fill:url(#XMLID_345_);"/>
						<clipPath id="XMLID_346_">
							<use xlink:href="#XMLID_279_"  style="overflow:visible;"/>
						</clipPath>
						<path id="XMLID_282_" class="st14" d="M24.4,21.8c-0.3,1.9,1.6,3.7,2.9,4.8c0.3,0.3,1.3,0.7,1.1,1.2c-0.8,0.3-1.5-0.2-2-0.7
							c-0.6-0.5-1.2-0.8-1.9-1.2c-0.9-0.6-2-1-2.7-1.9c-0.4-0.6-0.5-1.4-0.4-2.1c0.1-0.8,0.1-1.4,0.1-2.2c-0.1-1.5,0-2.7,0.7-4.1
							c0.6-1.1,2-1.8,3.1-2.3c0.9-0.4,1.9-0.6,2.9-0.5c0.8,0.1,1.5,0.6,2.1,1.1c0.6,0.4,1.4,0.7,1.8,1.2c0.7,1.1-1.8-0.2-2-0.2
							c-0.6,0-0.7,0.3-0.5,0.7c0.2,0.4,0.6,0.6,0,0.8c-0.8,0.3-1.8,0.1-2.6,0.4c-1.3,0.4-2.4,1.1-2.6,2.6c0,0.3-0.1,0.7,0.1,1
							c0.1,0.3,0.5,0.5,0.5,0.8C24.7,21.2,24.5,21.5,24.4,21.8z"/>
						<path id="XMLID_281_" class="st14" d="M24.5,17.4c-0.4,0.3-0.6,0.7-0.6,1.3c0,0.5,0.2,1.8-0.3,2.1c-0.5,0.3-0.6-0.5-0.9,0.1
							c-0.1,0.3,0.1,3.2-0.8,2.3c-0.3-0.3-0.3-1.2-0.3-1.6c0-0.7,0-1.4-0.1-2.1c-0.1-1.1-0.4-2.8,0.4-3.7c0.7-0.8,1.7-1.3,2.7-1.7
							c0.9-0.3,1.8-0.8,2.8-1c0.4-0.1,2.1-0.4,1.4,0.4c-0.2,0.2-0.7,0.3-0.9,0.4c-0.3,0.2-0.6,0.4-1,0.6c-0.2,0.1-0.9,0.5-0.8,0.8
							c0.1,0.3,0.7-0.1,1,0.2c0.3,0.3-0.3,0.6-0.5,0.7C26,16.6,25,16.9,24.5,17.4z"/>
						<path id="XMLID_280_" class="st15" d="M36.7,21.2c0-1.3-0.3-2.3-1-3.3c-0.2-0.3-0.3-0.7-0.6-1c-0.2-0.2-1-0.4-1-0.5
							c0.2,0.4,0.6,0.6,0.3,1.1c-0.2,0.4-0.9,0.3-1.1,0.6c-0.2,0.4,0.7,0.4,0.8,0.8c0.2,0.5-0.3,0.8-0.7,0.9c0,0.3,0.1,0.2,0.2,0.3
							c0.2,0.4,0.4,0.5,0,1c-0.3,0.3-0.6,0.4-0.9,0.6c-0.1,0.1-0.9,0.5-0.6,0.7c0.2,0.1,0.8-0.3,1-0.3c0.9,0,0.7,1.3,0.4,1.8
							c-0.7,1.3-2.4,0.8-3.3,1.8c-0.3,0.3-0.3,0.7-0.5,1.1c-0.3,0.5-0.7,0.3-1.1,0.7c-0.7,0.5,0.1,1,0.7,0.7c0.8-0.3,1.6-1,2.4-1.4
							c1.2-0.6,2.5-1.1,3.5-1.9C36.3,23.8,36.7,22.4,36.7,21.2z"/>
					</g>
				</g>
				<path id="XMLID_276_" class="st9" d="M25.6,16.1c0.1,0.4-0.7,0.5-0.9,0.7c-0.4,0.2-0.9,0.4-1.2,0.8c-0.3,0.4-0.1,0.6-0.2,1
					c-0.1,0.3-0.3,0.7-0.4,1c-0.3-0.2-0.2-1.4-0.1-1.7c0.2-0.5,0.8-0.7,1.1-1c-0.2,0-0.3,0-0.5,0C23.5,16.8,25.5,15.8,25.6,16.1z"/>
			</g>
			<path id="XMLID_274_" class="st9" d="M15.4,13.2c0,0-4.7,2.8-4.4,6.7c0.3,4.6,4.3,7.5,4.3,7.5l-6.1-3.6l0.1-7.1L15.4,13.2z"/>
			<path id="XMLID_273_" class="st9" d="M22.1,1.8c0,0-4.7,2.8-4.4,6.7C18,13.2,22,16,22,16l-6.1-3.6l0.1-7.1L22.1,1.8z"/>
			<path id="XMLID_272_" class="st9" d="M28.5,13.4c0,0-4.7,2.8-4.4,6.7c0.3,4.6,4.3,7.5,4.3,7.5L22.3,24l0.1-7.1L28.5,13.4z"/>
		</g>
		<g id="XMLID_264_">
			<g id="XMLID_265_">
				<radialGradient id="XMLID_347_" cx="21.4247" cy="38.1702" r="1.8742" gradientUnits="userSpaceOnUse">
					<stop  offset="0" style="stop-color:#FCEE23"/>
					<stop  offset="1" style="stop-color:#FFC614"/>
				</radialGradient>
				<path id="XMLID_270_" class="st16" d="M21.8,37c-0.3-0.6-0.7-1.4-0.9-2.1c0,0,0,0,0,0c-0.4,1.1-0.6,1.6-0.9,2.1
					c-0.3,0.5-0.4,1.3,0.2,1.7c0.4,0.2,0.5,0.2,0.7,0.2c0.1,0,0.3,0,0.7-0.2C22.3,38.3,22.1,37.5,21.8,37z"/>
				<path id="XMLID_269_" class="st9" d="M20.6,36.4c-0.1,0.3-0.2,0.6-0.2,0.9c-0.1,0.2-0.1,0.5,0,0.7c0.1,0.2,0.3,0.4,0.6,0.4
					c-0.1-0.1-0.3-0.2-0.3-0.4c-0.1-0.1-0.1-0.3-0.1-0.5c0.1,0,0.4,0.2,0.4,0.1c0.1-0.1-0.2-0.3-0.1-0.4c0.3-0.1,0-0.3,0-0.5
					c0-0.2,0.1-0.2,0.2-0.4c0.1-0.2,0-0.8-0.2-0.9C20.7,35.6,20.7,36.1,20.6,36.4z"/>
				<path id="XMLID_268_" class="st9" d="M20.9,35.3c0,0.3-0.2,0.5-0.3,0.8c-0.1,0.3-0.2,0.6-0.3,0.9c-0.1,0.3-0.3,0.6-0.2,0.9
					c0,0.3,0.3,0.6,0.5,0.7c0.2,0.1,1.1,0.2,1.1-0.2c-0.1,0-0.2,0.1-0.3,0.1c-0.1,0-0.3,0-0.4,0c-0.1,0-0.4-0.2-0.4-0.3
					c0-0.2,0.3,0,0.4-0.1c0.2-0.1-0.1-0.2-0.2-0.2c-0.1-0.1-0.3-0.2-0.3-0.4c0-0.2,0.1-0.1,0.2-0.3c0-0.1,0-0.1,0-0.2
					c0-0.1,0-0.1,0.1-0.2c0.1-0.4,0.1-0.8,0.2-1.2L20.9,35.3z"/>
				<path id="XMLID_267_" class="st9" d="M20.4,36.3c-0.1,0.3-0.2,0.5-0.3,0.8c-0.2,0.5-0.3,1.2,0.3,1.5c0.4,0.2,1.4,0.4,1.4-0.3
					c-0.2,0.3-0.6,0.4-1,0.3c-0.2-0.1-0.3-0.1-0.4-0.3c0-0.1-0.1-0.2-0.1-0.3c0-0.1,0.1-0.1,0.2-0.1c0-0.1-0.1-0.2-0.1-0.3
					c0-0.2,0.1-0.2,0.2-0.3c0.2-0.1,0.2-0.5,0.2-0.7c0-0.5,0.3-1,0.2-1.5c-0.1,0.1-0.1,0.3-0.2,0.5C20.7,35.8,20.5,36,20.4,36.3z"/>
				<path id="XMLID_266_" class="st17" d="M21.7,38.6c0.2-0.2,0.3-0.5,0.3-0.7c0-0.3-0.1-0.5-0.2-0.8c-0.1-0.2-0.2-0.6-0.3-0.7
					c0,0.4,0.4,0.8,0.3,1.1c0,0-0.1,0-0.1,0c0,0.2,0.3,0.3,0.3,0.6c0,0.2-0.2,0.4-0.3,0.5c-0.3,0.2-0.9,0.1-1.2-0.1
					c0,0.2,0.5,0.3,0.6,0.3C21.2,38.9,21.5,38.8,21.7,38.6z"/>
			</g>
		</g>
		<g id="XMLID_252_">
			<path id="XMLID_262_" class="st4" d="M8.9,28.6h0.9v2.5h2.5v-2.5h0.9v5.9h-0.9v-3.1H9.9v3.1H8.9V28.6z"/>
			<path id="XMLID_259_" class="st4" d="M14.5,30.2c0-0.2,0.1-0.5,0.2-0.7c0.1-0.2,0.3-0.4,0.5-0.5c0.2-0.1,0.4-0.2,0.7-0.3
				c0.3-0.1,0.5-0.1,0.8-0.1c0.3,0,0.5,0,0.8,0.1c0.3,0.1,0.5,0.2,0.7,0.3c0.2,0.1,0.4,0.3,0.5,0.5c0.1,0.2,0.2,0.4,0.2,0.7V33
				c0,0.3-0.1,0.5-0.2,0.7c-0.1,0.2-0.3,0.4-0.5,0.5c-0.2,0.1-0.4,0.2-0.7,0.3c-0.3,0.1-0.5,0.1-0.8,0.1c-0.3,0-0.5,0-0.8-0.1
				c-0.3-0.1-0.5-0.2-0.7-0.3c-0.2-0.1-0.4-0.3-0.5-0.5c-0.1-0.2-0.2-0.4-0.2-0.7V30.2z M16.7,34.3c0.2,0,0.4,0,0.6-0.1
				c0.2-0.1,0.3-0.1,0.4-0.2c0.1-0.1,0.2-0.2,0.2-0.3c0-0.1,0.1-0.2,0.1-0.4v-3.4c0-0.3-0.1-0.5-0.3-0.7c-0.2-0.2-0.5-0.3-0.9-0.3
				c-0.4,0-0.7,0.1-0.9,0.3c-0.2,0.2-0.3,0.4-0.3,0.7v3.4c0,0.3,0.1,0.5,0.3,0.7C16,34.2,16.3,34.3,16.7,34.3z"/>
			<path id="XMLID_257_" class="st4" d="M24.1,33.3v-4.7h0.3v5.9h-0.6l-3.3-4.6l-0.1-0.2h0v4.8h-0.3v-5.9h0.7l3.2,4.5L24.1,33.3
				L24.1,33.3z"/>
			<path id="XMLID_255_" class="st4" d="M25.7,28.6h3.7v0.3h-2.8v2.2h1.5v0.3h-1.5v2.8h2.8v0.3h-3.7V28.6z"/>
			<path id="XMLID_253_" class="st4" d="M31.3,28.6l1.6,3.2h0l1.6-3.2h0.3l-1.8,3.5v2.4h-0.9v-2.1l-1.9-3.8H31.3z"/>
		</g>
	</g>
	<g id="XMLID_2_">
		<path id="XMLID_245_" class="st18" d="M38.8,7.2c-0.3-0.3-0.8-0.5-1.3-0.8c-0.5-0.2-1.1-0.3-1.6-0.6c-0.8-0.5-0.8-1.4-1.2-2.1
			C34.5,3.2,34,3.1,34,3.1s0.6,0.7,0.8,1.1c0,0.1,0,0.3,0,0.4c-0.1,0.1-0.2,0.1-0.2,0.1c-0.3-0.1-0.5-0.1-0.8-0.1
			c0-0.1-0.1-0.2-0.2-0.2c-0.1-0.1-0.2-0.1-0.3-0.1c0,0-0.1,0-0.1,0c0-0.1-0.1-0.3-0.2-0.4c-0.2-0.2-0.3-0.2-0.4-0.4
			c0,0,0-0.1,0-0.1c0.1,0,0.1-0.1,0.2-0.2C33,3,33,2.8,32.9,2.7c-0.1-0.1-0.3,0-0.4,0.2c-0.1,0.2-0.2,0.4-0.1,0.5
			c0,0.1,0,0.4,0.2,0.5C32.8,4,32.9,4,32.9,4.1c0,0,0.1,0.2,0.1,0.3c0,0-0.1,0-0.1,0c-0.2,0.1-0.3,0.2-0.3,0.3c0,0-0.1,0.1-0.1,0.1
			c0,0-0.1,0.1-0.1,0.1c-0.1,0-0.2,0.2-0.2,0.4c0,0,0,0.1,0,0.1c-0.1,0-0.2,0-0.3,0c-0.1,0-0.1-0.1-0.3-0.3c-0.1-0.1-0.4-0.1-0.5,0
			c-0.1-0.1-0.3,0-0.4,0.2c-0.1,0.2-0.2,0.4-0.1,0.5c0.1,0.1,0.3,0,0.4-0.2c0.1-0.1,0.1-0.1,0.1-0.2c0,0,0.1,0,0.1,0
			c0.2,0,0.3,0.2,0.5,0.3c0.1,0.1,1.5,0.7,1.3,0.9c-0.3,0.3-0.8,0.3-1.2,0.5c0.5,0.3,1.2,0.2,1.7,0.3c0.6,0.1,0.4,0,0.8,0.5
			c0.2,0.3,0.4,0.6,0.6,0.9c0.9,1.6,1.4,2.5,3.3,2.4c0.8-0.1,1.5-0.2,1.7-0.3c0.1,0,0.1,0,0.1,0l0.1,0.1c0,0,0,0,0-0.1
			c0,0,0.1,0,0.1,0l-0.1-0.1c0,0-0.1-0.1-0.1-0.2C40.1,9.1,39.8,8,38.8,7.2z M35.6,5.5c0.2,0,0.3-0.1,0.5-0.1c0,0,0.1,0,0.1,0
			C36.1,5.4,35.9,5.5,35.6,5.5z M33.9,8.1c0-0.2,0-0.3,0-0.5C34,7.9,34,8.1,33.9,8.1C33.9,8.2,33.9,8.1,33.9,8.1z M36.1,4.4
			c-0.1,0-0.2,0-0.2,0C35.9,4.4,36,4.4,36.1,4.4C36.1,4.4,36.1,4.4,36.1,4.4z M33,8.4C33,8.4,33,8.4,33,8.4c0-0.1,0-0.1,0-0.2
			C33,8.2,33,8.3,33,8.4z"/>
		<g id="XMLID_3_">
			<path id="XMLID_244_" class="st19" d="M38.8,6.3c-1.6-0.7-4.1-0.7-4.3-0.6l-0.6,1c0.1,0.2,1.5,2.1,2.7,2.9c1.2,0.8,2,0.4,2.2,0.2
				c0.3-0.2,1-0.6,1.2-0.5c0.1,0,0.3,0.1,0.3,0.1l0.1,0.1c0,0,0,0,0,0c0,0,0.1,0,0.1,0l-0.1,0c-0.1-0.1-0.1-0.2-0.3-0.2
				C40,9,40.1,8.2,40,7.9C39.8,7.3,39.4,6.6,38.8,6.3z"/>
			<g id="XMLID_240_">
				
					<radialGradient id="XMLID_348_" cx="-20.8503" cy="-294.6211" r="1.858" gradientTransform="matrix(0.4662 -0.8847 0.7121 0.3753 255.0418 98.9884)" gradientUnits="userSpaceOnUse">
					<stop  offset="0" style="stop-color:#FCEE23"/>
					<stop  offset="1" style="stop-color:#FFC614"/>
				</radialGradient>
				<path id="XMLID_243_" class="st20" d="M36.7,5.8c-0.5-0.1-1.1-0.1-1.2-0.1c0,0.3,0,0.6-0.2,1c-0.2,0.4-0.5,0.6-0.8,0.9
					c0.1,0.1,0.4,0.6,0.7,0.9c0.4-0.3,0.6-0.7,1-1.2C36.5,6.8,36.7,6.2,36.7,5.8z"/>
				
					<radialGradient id="XMLID_349_" cx="8.2537" cy="-388.9904" r="1.9296" gradientTransform="matrix(0.5704 -1.0822 0.5845 0.308 259.8912 136.4789)" gradientUnits="userSpaceOnUse">
					<stop  offset="0" style="stop-color:#FCEE23"/>
					<stop  offset="1" style="stop-color:#FFC614"/>
				</radialGradient>
				<path id="XMLID_242_" class="st21" d="M38.5,6.3C38.2,6.1,38,6,37.6,6c-0.1,0.4-0.2,1.1-0.5,1.6c-0.4,0.7-0.9,1.1-1.2,1.5
					c0.3,0.3,0.5,0.5,0.8,0.7c0.4-0.4,0.8-0.9,1.2-1.6C38.2,7.5,38.5,6.7,38.5,6.3z"/>
				
					<radialGradient id="XMLID_350_" cx="8.0468" cy="-516.8174" r="2.0206" gradientTransform="matrix(0.5704 -1.0822 0.4714 0.2484 277.7125 145.58)" gradientUnits="userSpaceOnUse">
					<stop  offset="0" style="stop-color:#FCEE23"/>
					<stop  offset="1" style="stop-color:#FFC614"/>
				</radialGradient>
				<path id="XMLID_241_" class="st22" d="M39.9,7.5c-0.2-0.4-0.5-0.8-0.7-1c-0.1,0.4-0.3,1.1-0.7,1.7c-0.4,0.8-1,1.4-1.2,1.7
					c0,0,0.4,0.3,1.2,0.1c0.3-0.4,0.6-0.7,0.9-1.2C39.5,8.5,39.7,7.9,39.9,7.5z"/>
			</g>
			<circle id="XMLID_239_" class="st19" cx="34" cy="6.1" r="1.3"/>
			
				<ellipse id="XMLID_238_" transform="matrix(0.4659 -0.8848 0.8848 0.4659 12.7 32.0665)" class="st19" cx="32.9" cy="5.5" rx="0.9" ry="0.6"/>
			<path id="XMLID_237_" class="st19" d="M32.1,3.4c-0.1,0.2-0.1,0.4,0,0.4c0,0.1,0.1,0.3,0.2,0.4c0.2,0.1,0.3,0.1,0.4,0.2
				c0.1,0.1,0.2,0.4,0.2,0.4L33,4.7c0,0-0.1-0.3-0.3-0.4c-0.2-0.1-0.4-0.1-0.4-0.3c0,0,0-0.1,0-0.1c0,0,0.1-0.1,0.1-0.2
				c0.1-0.2,0.1-0.4,0-0.4C32.3,3.1,32.2,3.3,32.1,3.4z"/>
			<path id="XMLID_236_" class="st19" d="M30.7,5.9c0.1-0.2,0.3-0.3,0.4-0.3c0.1,0,0.3-0.1,0.5,0c0.2,0.1,0.3,0.2,0.4,0.2
				c0.1,0,0.5,0,0.5,0L32.3,6c0,0-0.3,0.1-0.5,0c-0.2-0.1-0.3-0.2-0.5-0.2c0,0-0.1,0-0.1,0.1c0,0.1,0,0.1-0.1,0.2
				c-0.1,0.2-0.3,0.3-0.4,0.3C30.6,6.3,30.6,6.1,30.7,5.9z"/>
			<g id="XMLID_141_">
				<g id="XMLID_142_">
					<defs>
						
							<ellipse id="XMLID_143_" transform="matrix(0.8248 -0.5654 0.5654 0.8248 2.9698 19.3995)" cx="32.8" cy="4.9" rx="0.4" ry="0.2"/>
					</defs>
					<clipPath id="XMLID_351_">
						<use xlink:href="#XMLID_143_"  style="overflow:visible;"/>
					</clipPath>
					
						<rect id="XMLID_235_" x="32.4" y="4.7" transform="matrix(-0.9002 0.4354 -0.4354 -0.9002 64.4495 -4.9534)" class="st23" width="0.8" height="0.4"/>
					
						<ellipse id="XMLID_234_" transform="matrix(0.9289 -0.3704 0.3704 0.9289 0.5289 12.4732)" class="st23" cx="32.7" cy="4.9" rx="0.5" ry="0.2"/>
					
						<ellipse id="XMLID_233_" transform="matrix(0.929 -0.3702 0.3702 0.929 0.5274 12.467)" class="st24" cx="32.7" cy="4.9" rx="0.5" ry="0.2"/>
					
						<ellipse id="XMLID_232_" transform="matrix(0.9288 -0.3705 0.3705 0.9288 0.5303 12.4791)" class="st25" cx="32.7" cy="4.9" rx="0.5" ry="0.2"/>
					
						<ellipse id="XMLID_231_" transform="matrix(0.9289 -0.3703 0.3703 0.9289 0.5286 12.4721)" class="st26" cx="32.7" cy="4.9" rx="0.5" ry="0.2"/>
					
						<ellipse id="XMLID_230_" transform="matrix(0.9289 -0.3704 0.3704 0.9289 0.5295 12.4756)" class="st27" cx="32.7" cy="4.9" rx="0.5" ry="0.2"/>
					
						<ellipse id="XMLID_229_" transform="matrix(0.9288 -0.3705 0.3705 0.9288 0.5302 12.4789)" class="st28" cx="32.7" cy="4.9" rx="0.5" ry="0.2"/>
					
						<ellipse id="XMLID_228_" transform="matrix(0.9288 -0.3706 0.3706 0.9288 0.5308 12.481)" class="st29" cx="32.7" cy="4.9" rx="0.5" ry="0.2"/>
					
						<ellipse id="XMLID_227_" transform="matrix(0.9288 -0.3707 0.3707 0.9288 0.5312 12.483)" class="st30" cx="32.7" cy="4.9" rx="0.5" ry="0.2"/>
					
						<ellipse id="XMLID_226_" transform="matrix(0.9288 -0.3705 0.3705 0.9288 0.5299 12.4775)" class="st31" cx="32.7" cy="4.9" rx="0.4" ry="0.2"/>
					
						<ellipse id="XMLID_225_" transform="matrix(0.9288 -0.3705 0.3705 0.9288 0.5303 12.4792)" class="st32" cx="32.7" cy="4.9" rx="0.4" ry="0.2"/>
					
						<ellipse id="XMLID_224_" transform="matrix(0.9288 -0.3707 0.3707 0.9288 0.5312 12.4831)" class="st33" cx="32.7" cy="4.9" rx="0.4" ry="0.2"/>
					
						<ellipse id="XMLID_223_" transform="matrix(0.9288 -0.3707 0.3707 0.9288 0.5314 12.4835)" class="st34" cx="32.7" cy="4.9" rx="0.4" ry="0.2"/>
					
						<ellipse id="XMLID_222_" transform="matrix(0.9288 -0.3705 0.3705 0.9288 0.5299 12.4777)" class="st35" cx="32.7" cy="4.9" rx="0.4" ry="0.2"/>
					
						<ellipse id="XMLID_221_" transform="matrix(0.9289 -0.3703 0.3703 0.9289 0.5281 12.47)" class="st36" cx="32.7" cy="4.9" rx="0.4" ry="0.2"/>
					
						<ellipse id="XMLID_220_" transform="matrix(0.929 -0.3701 0.3701 0.929 0.5264 12.463)" class="st37" cx="32.7" cy="4.9" rx="0.4" ry="0.2"/>
					
						<ellipse id="XMLID_219_" transform="matrix(0.9288 -0.3705 0.3705 0.9288 0.53 12.478)" class="st38" cx="32.7" cy="4.9" rx="0.4" ry="0.2"/>
					
						<ellipse id="XMLID_218_" transform="matrix(0.9289 -0.3703 0.3703 0.9289 0.528 12.4697)" class="st39" cx="32.7" cy="4.9" rx="0.4" ry="0.2"/>
					
						<ellipse id="XMLID_217_" transform="matrix(0.9288 -0.3707 0.3707 0.9288 0.5314 12.4841)" class="st40" cx="32.7" cy="4.9" rx="0.4" ry="0.2"/>
					
						<ellipse id="XMLID_216_" transform="matrix(0.9289 -0.3704 0.3704 0.9289 0.5295 12.476)" class="st41" cx="32.7" cy="4.9" rx="0.4" ry="0.2"/>
					
						<ellipse id="XMLID_215_" transform="matrix(0.9288 -0.3705 0.3705 0.9288 0.5295 12.4763)" class="st42" cx="32.7" cy="4.9" rx="0.4" ry="0.2"/>
					
						<ellipse id="XMLID_214_" transform="matrix(0.9288 -0.3706 0.3706 0.9288 0.5308 12.4815)" class="st43" cx="32.7" cy="4.9" rx="0.4" ry="0.1"/>
					
						<ellipse id="XMLID_213_" transform="matrix(0.9287 -0.3707 0.3707 0.9287 0.5319 12.4857)" class="st44" cx="32.7" cy="4.9" rx="0.4" ry="0.1"/>
					
						<ellipse id="XMLID_212_" transform="matrix(0.929 -0.3701 0.3701 0.929 0.5268 12.4641)" class="st45" cx="32.7" cy="4.9" rx="0.4" ry="0.1"/>
					
						<ellipse id="XMLID_211_" transform="matrix(0.9287 -0.3709 0.3709 0.9287 0.5336 12.4927)" class="st46" cx="32.7" cy="4.9" rx="0.4" ry="0.1"/>
					
						<ellipse id="XMLID_210_" transform="matrix(0.9288 -0.3706 0.3706 0.9288 0.5311 12.482)" class="st47" cx="32.7" cy="4.9" rx="0.4" ry="0.1"/>
					
						<ellipse id="XMLID_209_" transform="matrix(0.9289 -0.3704 0.3704 0.9289 0.5296 12.476)" class="st48" cx="32.7" cy="4.9" rx="0.4" ry="0.1"/>
					
						<ellipse id="XMLID_208_" transform="matrix(0.929 -0.3701 0.3701 0.929 0.5269 12.4648)" class="st49" cx="32.7" cy="4.9" rx="0.4" ry="0.1"/>
					
						<ellipse id="XMLID_207_" transform="matrix(0.9289 -0.3703 0.3703 0.9289 0.5285 12.4715)" class="st50" cx="32.7" cy="4.9" rx="0.3" ry="0.1"/>
					
						<ellipse id="XMLID_206_" transform="matrix(0.9289 -0.3704 0.3704 0.9289 0.529 12.4738)" class="st51" cx="32.7" cy="4.9" rx="0.3" ry="0.1"/>
					
						<ellipse id="XMLID_205_" transform="matrix(0.9288 -0.3706 0.3706 0.9288 0.5307 12.4808)" class="st52" cx="32.7" cy="4.9" rx="0.3" ry="0.1"/>
					
						<ellipse id="XMLID_204_" transform="matrix(0.9288 -0.3706 0.3706 0.9288 0.5311 12.4824)" class="st53" cx="32.7" cy="4.9" rx="0.3" ry="0.1"/>
					
						<ellipse id="XMLID_203_" transform="matrix(0.9289 -0.3703 0.3703 0.9289 0.5285 12.4715)" class="st54" cx="32.7" cy="4.9" rx="0.3" ry="0.1"/>
					
						<ellipse id="XMLID_202_" transform="matrix(0.9288 -0.3705 0.3705 0.9288 0.5297 12.4766)" class="st55" cx="32.7" cy="4.9" rx="0.3" ry="0.1"/>
					
						<ellipse id="XMLID_201_" transform="matrix(0.9288 -0.3706 0.3706 0.9288 0.5311 12.4824)" class="st56" cx="32.7" cy="4.9" rx="0.3" ry="0.1"/>
					
						<ellipse id="XMLID_200_" transform="matrix(0.9288 -0.3707 0.3707 0.9288 0.5316 12.4846)" class="st57" cx="32.7" cy="4.9" rx="0.3" ry="0.1"/>
					
						<ellipse id="XMLID_199_" transform="matrix(0.9287 -0.3708 0.3708 0.9287 0.5323 12.4875)" class="st58" cx="32.7" cy="4.9" rx="0.3" ry="0.1"/>
					
						<ellipse id="XMLID_198_" transform="matrix(0.9287 -0.3709 0.3709 0.9287 0.5336 12.493)" class="st59" cx="32.7" cy="4.9" rx="0.3" ry="0.1"/>
					
						<ellipse id="XMLID_197_" transform="matrix(0.9286 -0.3711 0.3711 0.9286 0.5352 12.5)" class="st60" cx="32.7" cy="4.9" rx="0.3" ry="0.1"/>
					
						<ellipse id="XMLID_196_" transform="matrix(0.9289 -0.3704 0.3704 0.9289 0.5288 12.4726)" class="st61" cx="32.7" cy="4.9" rx="0.3" ry="0.1"/>
					
						<ellipse id="XMLID_195_" transform="matrix(0.9289 -0.3704 0.3704 0.9289 0.5292 12.4741)" class="st62" cx="32.7" cy="4.9" rx="0.3" ry="0.1"/>
					
						<ellipse id="XMLID_194_" transform="matrix(0.929 -0.3701 0.3701 0.929 0.5267 12.4635)" class="st63" cx="32.7" cy="4.9" rx="0.3" ry="0.1"/>
					
						<ellipse id="XMLID_193_" transform="matrix(0.9287 -0.3707 0.3707 0.9287 0.532 12.4859)" class="st64" cx="32.7" cy="4.9" rx="0.3" ry="0.1"/>
					
						<ellipse id="XMLID_192_" transform="matrix(0.9291 -0.3699 0.3699 0.9291 0.525 12.4568)" class="st65" cx="32.7" cy="4.9" rx="0.3" ry="0.1"/>
					
						<ellipse id="XMLID_191_" transform="matrix(0.9288 -0.3705 0.3705 0.9288 0.5302 12.4788)" class="st66" cx="32.7" cy="4.9" rx="0.3" ry="0.1"/>
					
						<ellipse id="XMLID_190_" transform="matrix(0.9292 -0.3696 0.3696 0.9292 0.5226 12.4466)" class="st67" cx="32.7" cy="4.9" rx="0.3" ry="0.1"/>
					
						<ellipse id="XMLID_189_" transform="matrix(0.9287 -0.3708 0.3708 0.9287 0.5326 12.489)" class="st68" cx="32.7" cy="4.9" rx="0.2" ry="0.1"/>
					
						<ellipse id="XMLID_188_" transform="matrix(0.9288 -0.3705 0.3705 0.9288 0.5297 12.4772)" class="st69" cx="32.7" cy="4.9" rx="0.2" ry="0.1"/>
					
						<ellipse id="XMLID_187_" transform="matrix(0.9286 -0.3711 0.3711 0.9286 0.5352 12.4999)" class="st70" cx="32.7" cy="4.9" rx="0.2" ry="0.1"/>
					
						<ellipse id="XMLID_186_" transform="matrix(0.9287 -0.3708 0.3708 0.9287 0.5326 12.4893)" class="st71" cx="32.7" cy="4.9" rx="0.2" ry="0.1"/>
					
						<ellipse id="XMLID_185_" transform="matrix(0.9289 -0.3704 0.3704 0.9289 0.529 12.474)" class="st72" cx="32.7" cy="4.9" rx="0.2" ry="0.1"/>
					
						<ellipse id="XMLID_184_" transform="matrix(0.9285 -0.3712 0.3712 0.9285 0.5358 12.5029)" class="st73" cx="32.7" cy="4.9" rx="0.2" ry="0.1"/>
					
						<ellipse id="XMLID_183_" transform="matrix(0.929 -0.3701 0.3701 0.929 0.5269 12.4647)" class="st74" cx="32.7" cy="4.9" rx="0.2" ry="0.1"/>
					
						<ellipse id="XMLID_182_" transform="matrix(0.9289 -0.3703 0.3703 0.9289 0.5286 12.4717)" class="st75" cx="32.7" cy="4.9" rx="0.2" ry="0.1"/>
					
						<ellipse id="XMLID_181_" transform="matrix(0.9288 -0.3705 0.3705 0.9288 0.5302 12.4791)" class="st76" cx="32.7" cy="4.9" rx="0.2" ry="0.1"/>
					
						<ellipse id="XMLID_180_" transform="matrix(0.9288 -0.3706 0.3706 0.9288 0.5311 12.4824)" class="st77" cx="32.7" cy="4.9" rx="0.2" ry="0.1"/>
					
						<ellipse id="XMLID_179_" transform="matrix(0.9287 -0.3709 0.3709 0.9287 0.533 12.4908)" class="st78" cx="32.7" cy="4.9" rx="0.2" ry="0.1"/>
					
						<ellipse id="XMLID_178_" transform="matrix(0.9289 -0.3704 0.3704 0.9289 0.529 12.4738)" class="st79" cx="32.7" cy="4.9" rx="0.2" ry="0.1"/>
					
						<ellipse id="XMLID_177_" transform="matrix(0.9288 -0.3705 0.3705 0.9288 0.5302 12.4787)" class="st80" cx="32.7" cy="4.9" rx="0.2" ry="0.1"/>
					
						<ellipse id="XMLID_176_" transform="matrix(0.9287 -0.3708 0.3708 0.9287 0.5324 12.4881)" class="st81" cx="32.7" cy="4.9" rx="0.2" ry="0.1"/>
					
						<ellipse id="XMLID_175_" transform="matrix(0.9287 -0.3709 0.3709 0.9287 0.5336 12.4929)" class="st82" cx="32.7" cy="4.9" rx="0.2" ry="0.1"/>
					
						<ellipse id="XMLID_174_" transform="matrix(0.9285 -0.3712 0.3712 0.9285 0.5361 12.5035)" class="st83" cx="32.7" cy="4.9" rx="0.2" ry="0.1"/>
					
						<ellipse id="XMLID_173_" transform="matrix(0.9288 -0.3707 0.3707 0.9288 0.5314 12.4839)" class="st84" cx="32.7" cy="4.9" rx="0.2" ry="0.1"/>
					
						<ellipse id="XMLID_172_" transform="matrix(0.9286 -0.371 0.371 0.9286 0.5341 12.4949)" class="st85" cx="32.7" cy="4.9" rx="0.2" ry="0.1"/>
					
						<ellipse id="XMLID_171_" transform="matrix(0.9285 -0.3713 0.3713 0.9285 0.5366 12.5061)" class="st86" cx="32.7" cy="4.9" rx="0.2" ry="0.1"/>
					
						<ellipse id="XMLID_170_" transform="matrix(0.9291 -0.3697 0.3697 0.9291 0.5237 12.4515)" class="st87" cx="32.7" cy="4.9" rx="0.1" ry="0.1"/>
					
						<ellipse id="XMLID_169_" transform="matrix(0.9286 -0.371 0.371 0.9286 0.5339 12.4946)" class="st88" cx="32.7" cy="4.9" rx="0.1" ry="0.1"/>
					
						<ellipse id="XMLID_168_" transform="matrix(0.9289 -0.3702 0.3702 0.9289 0.5277 12.4683)" class="st89" cx="32.7" cy="4.9" rx="0.1" ry="0.1"/>
					
						<ellipse id="XMLID_167_" transform="matrix(0.9293 -0.3694 0.3694 0.9293 0.5208 12.4393)" class="st90" cx="32.7" cy="4.9" rx="0.1" ry="0.1"/>
					
						<ellipse id="XMLID_166_" transform="matrix(0.9295 -0.3688 0.3688 0.9295 0.5158 12.4173)" class="st91" cx="32.7" cy="4.9" rx="0.1" ry="0"/>
					
						<ellipse id="XMLID_165_" transform="matrix(0.9295 -0.3689 0.3689 0.9295 0.5168 12.4221)" class="st92" cx="32.7" cy="4.9" rx="0.1" ry="0"/>
					
						<ellipse id="XMLID_164_" transform="matrix(0.9294 -0.3691 0.3691 0.9294 0.5184 12.4285)" class="st93" cx="32.7" cy="4.9" rx="0.1" ry="0"/>
					
						<ellipse id="XMLID_163_" transform="matrix(0.9292 -0.3695 0.3695 0.9292 0.522 12.4441)" class="st94" cx="32.7" cy="4.9" rx="0.1" ry="0"/>
					
						<ellipse id="XMLID_162_" transform="matrix(0.9291 -0.3699 0.3699 0.9291 0.5251 12.4569)" class="st95" cx="32.7" cy="4.9" rx="0.1" ry="0"/>
					
						<ellipse id="XMLID_161_" transform="matrix(0.929 -0.3702 0.3702 0.929 0.5272 12.4661)" class="st96" cx="32.7" cy="4.9" rx="0.1" ry="0"/>
					
						<ellipse id="XMLID_160_" transform="matrix(0.9294 -0.369 0.369 0.9294 0.5178 12.4262)" class="st97" cx="32.7" cy="4.9" rx="0.1" ry="0"/>
					
						<ellipse id="XMLID_159_" transform="matrix(0.9293 -0.3694 0.3694 0.9293 0.5214 12.4411)" class="st98" cx="32.7" cy="4.9" rx="0.1" ry="0"/>
					
						<ellipse id="XMLID_158_" transform="matrix(0.929 -0.3701 0.3701 0.929 0.5263 12.4625)" class="st99" cx="32.7" cy="4.9" rx="0.1" ry="0"/>
					
						<ellipse id="XMLID_157_" transform="matrix(0.9288 -0.3705 0.3705 0.9288 0.5304 12.4793)" class="st100" cx="32.7" cy="4.9" rx="0.1" ry="0"/>
					
						<ellipse id="XMLID_156_" transform="matrix(0.9288 -0.3706 0.3706 0.9288 0.5309 12.4817)" class="st101" cx="32.7" cy="4.9" rx="0.1" ry="0"/>
					
						<ellipse id="XMLID_155_" transform="matrix(0.9292 -0.3697 0.3697 0.9292 0.523 12.4484)" class="st102" cx="32.7" cy="4.9" rx="0.1" ry="0"/>
					
						<ellipse id="XMLID_154_" transform="matrix(0.929 -0.37 0.37 0.929 0.5259 12.4605)" class="st103" cx="32.7" cy="4.9" rx="0.1" ry="0"/>
					
						<ellipse id="XMLID_153_" transform="matrix(0.9296 -0.3686 0.3686 0.9296 0.5146 12.4126)" class="st104" cx="32.7" cy="4.9" rx="0.1" ry="0"/>
					
						<ellipse id="XMLID_152_" transform="matrix(0.9284 -0.3716 0.3716 0.9284 0.539 12.5159)" class="st105" cx="32.7" cy="4.9" rx="0" ry="0"/>
					
						<ellipse id="XMLID_151_" transform="matrix(0.9279 -0.3728 0.3728 0.9279 0.5487 12.5564)" class="st106" cx="32.7" cy="4.9" rx="0" ry="0"/>
					
						<ellipse id="XMLID_150_" transform="matrix(0.9288 -0.3706 0.3706 0.9288 0.5308 12.4816)" class="st107" cx="32.7" cy="4.9" rx="0" ry="0"/>
					
						<ellipse id="XMLID_149_" transform="matrix(0.9267 -0.3757 0.3757 0.9267 0.5734 12.6591)" class="st108" cx="32.7" cy="4.9" rx="0" ry="0"/>
					
						<ellipse id="XMLID_148_" transform="matrix(0.9278 -0.3731 0.3731 0.9278 0.5513 12.5674)" class="st109" cx="32.7" cy="4.9" rx="0" ry="0"/>
					
						<ellipse id="XMLID_147_" transform="matrix(0.9269 -0.3753 0.3753 0.9269 0.5695 12.6431)" class="st110" cx="32.7" cy="4.9" rx="0" ry="0"/>
					
						<ellipse id="XMLID_146_" transform="matrix(0.9248 -0.3804 0.3804 0.9248 0.6133 12.8219)" class="st111" cx="32.7" cy="4.9" rx="0" ry="0"/>
					<ellipse id="XMLID_145_" class="st112" cx="32.7" cy="4.9" rx="0" ry="0"/>
					<circle id="XMLID_144_" class="st113" cx="32.7" cy="4.9" r="0"/>
				</g>
			</g>
			<g id="XMLID_46_">
				<g id="XMLID_47_">
					<defs>
						<ellipse id="XMLID_48_" cx="32.4" cy="5.7" rx="0.2" ry="0.4"/>
					</defs>
					<clipPath id="XMLID_352_">
						<use xlink:href="#XMLID_48_"  style="overflow:visible;"/>
					</clipPath>
					
						<rect id="XMLID_140_" x="32.1" y="5.4" transform="matrix(-0.9002 0.4354 -0.4354 -0.9002 63.9803 -3.1906)" class="st114" width="0.5" height="0.8"/>
					
						<ellipse id="XMLID_139_" transform="matrix(0.2197 0.9756 -0.9756 0.2197 30.7798 -27.0356)" class="st114" cx="32.3" cy="5.7" rx="0.5" ry="0.2"/>
					
						<ellipse id="XMLID_138_" transform="matrix(0.2193 0.9756 -0.9756 0.2193 30.7904 -27.0362)" class="st115" cx="32.3" cy="5.7" rx="0.5" ry="0.2"/>
					
						<ellipse id="XMLID_137_" transform="matrix(0.2198 0.9755 -0.9755 0.2198 30.7747 -27.0355)" class="st116" cx="32.3" cy="5.7" rx="0.5" ry="0.2"/>
					
						<ellipse id="XMLID_136_" transform="matrix(0.2196 0.9756 -0.9756 0.2196 30.7812 -27.0358)" class="st117" cx="32.3" cy="5.7" rx="0.5" ry="0.2"/>
					
						<ellipse id="XMLID_135_" transform="matrix(0.22 0.9755 -0.9755 0.22 30.7695 -27.0352)" class="st118" cx="32.3" cy="5.7" rx="0.5" ry="0.2"/>
					
						<ellipse id="XMLID_134_" transform="matrix(0.2196 0.9756 -0.9756 0.2196 30.7808 -27.0357)" class="st119" cx="32.3" cy="5.7" rx="0.5" ry="0.2"/>
					
						<ellipse id="XMLID_133_" transform="matrix(0.2195 0.9756 -0.9756 0.2195 30.7845 -27.0359)" class="st120" cx="32.3" cy="5.7" rx="0.5" ry="0.2"/>
					
						<ellipse id="XMLID_132_" transform="matrix(0.2194 0.9756 -0.9756 0.2194 30.7882 -27.0361)" class="st121" cx="32.3" cy="5.7" rx="0.5" ry="0.2"/>
					
						<ellipse id="XMLID_131_" transform="matrix(0.2193 0.9756 -0.9756 0.2193 30.7904 -27.0363)" class="st122" cx="32.3" cy="5.7" rx="0.4" ry="0.2"/>
					
						<ellipse id="XMLID_130_" transform="matrix(0.2191 0.9757 -0.9757 0.2191 30.7982 -27.0367)" class="st123" cx="32.3" cy="5.7" rx="0.4" ry="0.2"/>
					
						<ellipse id="XMLID_129_" transform="matrix(0.2195 0.9756 -0.9756 0.2195 30.784 -27.0361)" class="st124" cx="32.3" cy="5.7" rx="0.4" ry="0.2"/>
					
						<ellipse id="XMLID_128_" transform="matrix(0.2194 0.9756 -0.9756 0.2194 30.7881 -27.0362)" class="st125" cx="32.3" cy="5.7" rx="0.4" ry="0.2"/>
					
						<ellipse id="XMLID_127_" transform="matrix(0.2194 0.9756 -0.9756 0.2194 30.7875 -27.036)" class="st126" cx="32.3" cy="5.7" rx="0.4" ry="0.2"/>
					
						<ellipse id="XMLID_126_" transform="matrix(0.2193 0.9756 -0.9756 0.2193 30.7905 -27.0362)" class="st127" cx="32.3" cy="5.7" rx="0.4" ry="0.2"/>
					
						<ellipse id="XMLID_125_" transform="matrix(0.219 0.9757 -0.9757 0.219 30.8011 -27.0366)" class="st128" cx="32.3" cy="5.7" rx="0.4" ry="0.2"/>
					
						<ellipse id="XMLID_124_" transform="matrix(0.2189 0.9758 -0.9758 0.2189 30.8061 -27.0369)" class="st129" cx="32.3" cy="5.7" rx="0.4" ry="0.2"/>
					
						<ellipse id="XMLID_123_" transform="matrix(0.2193 0.9756 -0.9756 0.2193 30.7907 -27.0361)" class="st130" cx="32.3" cy="5.7" rx="0.4" ry="0.2"/>
					
						<ellipse id="XMLID_122_" transform="matrix(0.2194 0.9756 -0.9756 0.2194 30.788 -27.0362)" class="st131" cx="32.3" cy="5.7" rx="0.4" ry="0.2"/>
					
						<ellipse id="XMLID_121_" transform="matrix(0.2195 0.9756 -0.9756 0.2195 30.7846 -27.0359)" class="st132" cx="32.3" cy="5.7" rx="0.4" ry="0.2"/>
					
						<ellipse id="XMLID_120_" transform="matrix(0.2192 0.9757 -0.9757 0.2192 30.7944 -27.0363)" class="st133" cx="32.3" cy="5.7" rx="0.4" ry="0.2"/>
					
						<ellipse id="XMLID_119_" transform="matrix(0.2191 0.9757 -0.9757 0.2191 30.7991 -27.0366)" class="st134" cx="32.3" cy="5.7" rx="0.4" ry="0.1"/>
					
						<ellipse id="XMLID_118_" transform="matrix(0.2195 0.9756 -0.9756 0.2195 30.7863 -27.0359)" class="st135" cx="32.3" cy="5.7" rx="0.4" ry="0.1"/>
					
						<ellipse id="XMLID_117_" transform="matrix(0.2192 0.9757 -0.9757 0.2192 30.7961 -27.0364)" class="st136" cx="32.3" cy="5.7" rx="0.4" ry="0.1"/>
					
						<ellipse id="XMLID_116_" transform="matrix(0.2197 0.9756 -0.9756 0.2197 30.7785 -27.0357)" class="st137" cx="32.3" cy="5.7" rx="0.4" ry="0.1"/>
					
						<ellipse id="XMLID_115_" transform="matrix(0.2194 0.9756 -0.9756 0.2194 30.7869 -27.036)" class="st138" cx="32.3" cy="5.7" rx="0.4" ry="0.1"/>
					
						<ellipse id="XMLID_114_" transform="matrix(0.2191 0.9757 -0.9757 0.2191 30.7992 -27.0365)" class="st139" cx="32.3" cy="5.7" rx="0.4" ry="0.1"/>
					
						<ellipse id="XMLID_113_" transform="matrix(0.219 0.9757 -0.9757 0.219 30.8029 -27.0367)" class="st140" cx="32.3" cy="5.7" rx="0.4" ry="0.1"/>
					
						<ellipse id="XMLID_112_" transform="matrix(0.2191 0.9757 -0.9757 0.2191 30.7997 -27.0367)" class="st141" cx="32.3" cy="5.7" rx="0.3" ry="0.1"/>
					
						<ellipse id="XMLID_111_" transform="matrix(0.2186 0.9758 -0.9758 0.2186 30.8145 -27.0374)" class="st142" cx="32.3" cy="5.7" rx="0.3" ry="0.1"/>
					
						<ellipse id="XMLID_110_" transform="matrix(0.2192 0.9757 -0.9757 0.2192 30.7943 -27.0365)" class="st143" cx="32.3" cy="5.7" rx="0.3" ry="0.1"/>
					
						<ellipse id="XMLID_109_" transform="matrix(0.2194 0.9756 -0.9756 0.2194 30.7867 -27.036)" class="st144" cx="32.3" cy="5.7" rx="0.3" ry="0.1"/>
					
						<ellipse id="XMLID_108_" transform="matrix(0.2192 0.9757 -0.9757 0.2192 30.7968 -27.0365)" class="st145" cx="32.3" cy="5.7" rx="0.3" ry="0.1"/>
					
						<ellipse id="XMLID_107_" transform="matrix(0.219 0.9757 -0.9757 0.219 30.8021 -27.0367)" class="st146" cx="32.3" cy="5.7" rx="0.3" ry="0.1"/>
					
						<ellipse id="XMLID_106_" transform="matrix(0.2185 0.9758 -0.9758 0.2185 30.8182 -27.0374)" class="st147" cx="32.3" cy="5.7" rx="0.3" ry="0.1"/>
					
						<ellipse id="XMLID_105_" transform="matrix(0.22 0.9755 -0.9755 0.22 30.7677 -27.0351)" class="st148" cx="32.3" cy="5.7" rx="0.3" ry="0.1"/>
					
						<ellipse id="XMLID_104_" transform="matrix(0.2196 0.9756 -0.9756 0.2196 30.7834 -27.0358)" class="st149" cx="32.3" cy="5.7" rx="0.3" ry="0.1"/>
					
						<ellipse id="XMLID_103_" transform="matrix(0.2194 0.9756 -0.9756 0.2194 30.7892 -27.0361)" class="st150" cx="32.3" cy="5.7" rx="0.3" ry="0.1"/>
					
						<ellipse id="XMLID_102_" transform="matrix(0.2191 0.9757 -0.9757 0.2191 30.799 -27.0366)" class="st151" cx="32.3" cy="5.7" rx="0.3" ry="0.1"/>
					
						<ellipse id="XMLID_101_" transform="matrix(0.2191 0.9757 -0.9757 0.2191 30.7985 -27.0366)" class="st152" cx="32.3" cy="5.7" rx="0.3" ry="0.1"/>
					
						<ellipse id="XMLID_100_" transform="matrix(0.2195 0.9756 -0.9756 0.2195 30.7841 -27.0357)" class="st153" cx="32.3" cy="5.7" rx="0.3" ry="0.1"/>
					
						<ellipse id="XMLID_99_" transform="matrix(0.2199 0.9755 -0.9755 0.2199 30.7728 -27.0354)" class="st154" cx="32.3" cy="5.7" rx="0.3" ry="0.1"/>
					
						<ellipse id="XMLID_98_" transform="matrix(0.2195 0.9756 -0.9756 0.2195 30.7838 -27.0359)" class="st155" cx="32.3" cy="5.7" rx="0.3" ry="0.1"/>
					
						<ellipse id="XMLID_97_" transform="matrix(0.2193 0.9757 -0.9757 0.2193 30.7934 -27.0363)" class="st156" cx="32.3" cy="5.7" rx="0.3" ry="0.1"/>
					
						<ellipse id="XMLID_96_" transform="matrix(0.2191 0.9757 -0.9757 0.2191 30.7999 -27.0366)" class="st157" cx="32.3" cy="5.7" rx="0.3" ry="0.1"/>
					
						<ellipse id="XMLID_95_" transform="matrix(0.2189 0.9757 -0.9757 0.2189 30.8039 -27.0369)" class="st158" cx="32.3" cy="5.7" rx="0.3" ry="0.1"/>
					
						<ellipse id="XMLID_94_" transform="matrix(0.2192 0.9757 -0.9757 0.2192 30.7955 -27.0367)" class="st159" cx="32.3" cy="5.7" rx="0.2" ry="0.1"/>
					
						<ellipse id="XMLID_93_" transform="matrix(0.2195 0.9756 -0.9756 0.2195 30.7864 -27.0361)" class="st160" cx="32.3" cy="5.7" rx="0.2" ry="0.1"/>
					
						<ellipse id="XMLID_92_" transform="matrix(0.2195 0.9756 -0.9756 0.2195 30.7835 -27.0359)" class="st161" cx="32.3" cy="5.7" rx="0.2" ry="0.1"/>
					
						<ellipse id="XMLID_91_" transform="matrix(0.2203 0.9754 -0.9754 0.2203 30.7572 -27.0347)" class="st162" cx="32.3" cy="5.7" rx="0.2" ry="0.1"/>
					
						<ellipse id="XMLID_90_" transform="matrix(0.22 0.9755 -0.9755 0.22 30.7683 -27.0351)" class="st163" cx="32.3" cy="5.7" rx="0.2" ry="0.1"/>
					
						<ellipse id="XMLID_89_" transform="matrix(0.2207 0.9753 -0.9753 0.2207 30.745 -27.034)" class="st164" cx="32.3" cy="5.7" rx="0.2" ry="0.1"/>
					
						<ellipse id="XMLID_88_" transform="matrix(0.2203 0.9754 -0.9754 0.2203 30.7573 -27.0346)" class="st165" cx="32.3" cy="5.7" rx="0.2" ry="0.1"/>
					
						<ellipse id="XMLID_87_" transform="matrix(0.2199 0.9755 -0.9755 0.2199 30.7712 -27.0353)" class="st166" cx="32.3" cy="5.7" rx="0.2" ry="0.1"/>
					
						<ellipse id="XMLID_86_" transform="matrix(0.2194 0.9756 -0.9756 0.2194 30.788 -27.0361)" class="st167" cx="32.3" cy="5.7" rx="0.2" ry="0.1"/>
					
						<ellipse id="XMLID_85_" transform="matrix(0.2198 0.9756 -0.9756 0.2198 30.776 -27.0357)" class="st168" cx="32.3" cy="5.7" rx="0.2" ry="0.1"/>
					
						<ellipse id="XMLID_84_" transform="matrix(0.219 0.9757 -0.9757 0.219 30.8012 -27.0368)" class="st169" cx="32.3" cy="5.7" rx="0.2" ry="0.1"/>
					
						<ellipse id="XMLID_83_" transform="matrix(0.22 0.9755 -0.9755 0.22 30.7688 -27.0353)" class="st170" cx="32.3" cy="5.7" rx="0.2" ry="0.1"/>
					
						<ellipse id="XMLID_82_" transform="matrix(0.2202 0.9755 -0.9755 0.2202 30.7626 -27.0349)" class="st171" cx="32.3" cy="5.7" rx="0.2" ry="0.1"/>
					
						<ellipse id="XMLID_81_" transform="matrix(0.2198 0.9755 -0.9755 0.2198 30.7741 -27.0354)" class="st172" cx="32.3" cy="5.7" rx="0.2" ry="0.1"/>
					
						<ellipse id="XMLID_80_" transform="matrix(0.2195 0.9756 -0.9756 0.2195 30.7863 -27.036)" class="st173" cx="32.3" cy="5.7" rx="0.2" ry="0.1"/>
					
						<ellipse id="XMLID_79_" transform="matrix(0.2189 0.9758 -0.9758 0.2189 30.8061 -27.0369)" class="st174" cx="32.3" cy="5.7" rx="0.2" ry="0.1"/>
					
						<ellipse id="XMLID_78_" transform="matrix(0.2182 0.9759 -0.9759 0.2182 30.8273 -27.0378)" class="st175" cx="32.3" cy="5.7" rx="0.2" ry="0.1"/>
					
						<ellipse id="XMLID_77_" transform="matrix(0.2205 0.9754 -0.9754 0.2205 30.7515 -27.0346)" class="st176" cx="32.3" cy="5.7" rx="0.2" ry="0.1"/>
					
						<ellipse id="XMLID_76_" transform="matrix(0.2198 0.9755 -0.9755 0.2198 30.7747 -27.0356)" class="st177" cx="32.3" cy="5.7" rx="0.2" ry="0.1"/>
					
						<ellipse id="XMLID_75_" transform="matrix(0.2197 0.9756 -0.9756 0.2197 30.7782 -27.0356)" class="st178" cx="32.3" cy="5.7" rx="0.1" ry="0.1"/>
					
						<ellipse id="XMLID_74_" transform="matrix(0.2193 0.9757 -0.9757 0.2193 30.7926 -27.0363)" class="st179" cx="32.3" cy="5.7" rx="0.1" ry="0.1"/>
					
						<ellipse id="XMLID_73_" transform="matrix(0.2189 0.9757 -0.9757 0.2189 30.8051 -27.0368)" class="st180" cx="32.3" cy="5.7" rx="0.1" ry="0.1"/>
					
						<ellipse id="XMLID_72_" transform="matrix(0.219 0.9757 -0.9757 0.219 30.8016 -27.0365)" class="st181" cx="32.3" cy="5.7" rx="0.1" ry="0.1"/>
					
						<ellipse id="XMLID_71_" transform="matrix(0.2195 0.9756 -0.9756 0.2195 30.786 -27.0359)" class="st182" cx="32.3" cy="5.7" rx="0.1" ry="0"/>
					
						<ellipse id="XMLID_70_" transform="matrix(0.2193 0.9757 -0.9757 0.2193 30.7924 -27.0361)" class="st183" cx="32.3" cy="5.7" rx="0.1" ry="0"/>
					
						<ellipse id="XMLID_69_" transform="matrix(0.2201 0.9755 -0.9755 0.2201 30.7647 -27.035)" class="st184" cx="32.3" cy="5.7" rx="0.1" ry="0"/>
					
						<ellipse id="XMLID_68_" transform="matrix(0.219 0.9757 -0.9757 0.219 30.8027 -27.0367)" class="st185" cx="32.3" cy="5.7" rx="0.1" ry="0"/>
					
						<ellipse id="XMLID_67_" transform="matrix(0.218 0.9759 -0.9759 0.218 30.8352 -27.0381)" class="st186" cx="32.3" cy="5.7" rx="0.1" ry="0"/>
					
						<ellipse id="XMLID_66_" transform="matrix(0.2179 0.976 -0.976 0.2179 30.8377 -27.0385)" class="st187" cx="32.3" cy="5.7" rx="0.1" ry="0"/>
					
						<ellipse id="XMLID_65_" transform="matrix(0.2175 0.9761 -0.9761 0.2175 30.8532 -27.0391)" class="st188" cx="32.3" cy="5.7" rx="0.1" ry="0"/>
					
						<ellipse id="XMLID_64_" transform="matrix(0.2208 0.9753 -0.9753 0.2208 30.7424 -27.034)" class="st189" cx="32.3" cy="5.7" rx="0.1" ry="0"/>
					
						<ellipse id="XMLID_63_" transform="matrix(0.2198 0.9755 -0.9755 0.2198 30.7734 -27.0354)" class="st190" cx="32.3" cy="5.7" rx="0.1" ry="0"/>
					
						<ellipse id="XMLID_62_" transform="matrix(0.2192 0.9757 -0.9757 0.2192 30.7944 -27.0364)" class="st191" cx="32.3" cy="5.7" rx="0.1" ry="0"/>
					
						<ellipse id="XMLID_61_" transform="matrix(0.2174 0.9761 -0.9761 0.2174 30.8569 -27.0391)" class="st192" cx="32.3" cy="5.7" rx="0.1" ry="0"/>
					
						<ellipse id="XMLID_60_" transform="matrix(0.2164 0.9763 -0.9763 0.2164 30.888 -27.0405)" class="st193" cx="32.3" cy="5.7" rx="0.1" ry="0"/>
					
						<ellipse id="XMLID_59_" transform="matrix(0.2185 0.9758 -0.9758 0.2185 30.8196 -27.0377)" class="st194" cx="32.3" cy="5.7" rx="0.1" ry="0"/>
					
						<ellipse id="XMLID_58_" transform="matrix(0.219 0.9757 -0.9757 0.219 30.8029 -27.0369)" class="st195" cx="32.3" cy="5.7" rx="0.1" ry="0"/>
					
						<ellipse id="XMLID_57_" transform="matrix(0.2172 0.9761 -0.9761 0.2172 30.8627 -27.0396)" class="st196" cx="32.3" cy="5.7" rx="0" ry="0"/>
					
						<ellipse id="XMLID_56_" transform="matrix(0.2183 0.9759 -0.9759 0.2183 30.8237 -27.0377)" class="st197" cx="32.3" cy="5.7" rx="0" ry="0"/>
					
						<ellipse id="XMLID_55_" transform="matrix(0.2165 0.9763 -0.9763 0.2165 30.8864 -27.0404)" class="st198" cx="32.3" cy="5.7" rx="0" ry="0"/>
					
						<ellipse id="XMLID_54_" transform="matrix(0.2239 0.9746 -0.9746 0.2239 30.637 -27.0286)" class="st199" cx="32.3" cy="5.7" rx="0" ry="0"/>
					
						<ellipse id="XMLID_53_" transform="matrix(0.2254 0.9743 -0.9743 0.2254 30.586 -27.0262)" class="st200" cx="32.3" cy="5.7" rx="0" ry="0"/>
					<ellipse id="XMLID_52_" class="st201" cx="32.3" cy="5.7" rx="0" ry="0"/>
					<ellipse id="XMLID_51_" class="st202" cx="32.3" cy="5.7" rx="0" ry="0"/>
					<ellipse id="XMLID_50_" class="st203" cx="32.3" cy="5.7" rx="0" ry="0"/>
					<circle id="XMLID_49_" class="st204" cx="32.3" cy="5.7" r="0"/>
				</g>
			</g>
			<path id="XMLID_45_" class="st19" d="M33.5,3.4c0,0,0.4,0.1,0.8,0.5C34.6,4.2,35,5.3,35,5.5C35,5.7,34.4,5,34.4,5s0.2-0.4,0-0.7
				C34.2,3.9,33.5,3.4,33.5,3.4z"/>
			<path id="XMLID_44_" class="st19" d="M31.5,7.2c0,0,0.3,0.3,0.8,0.4c0.5,0.1,1.6-0.2,1.8-0.3C34.3,7.1,33.4,7,33.4,7
				s-0.2,0.4-0.6,0.4C32.4,7.5,31.5,7.2,31.5,7.2z"/>
			<g id="XMLID_24_" class="st205">
				
					<linearGradient id="XMLID_353_" gradientUnits="userSpaceOnUse" x1="-20.9575" y1="-224.7027" x2="-15.407" y2="-224.7027" gradientTransform="matrix(0.4662 -0.8847 0.8847 0.4662 244.1466 92.8907)">
					<stop  offset="0" style="stop-color:#FFFFFF"/>
					<stop  offset="0.9839" style="stop-color:#80CCEA"/>
				</linearGradient>
				<path id="XMLID_43_" class="st206" d="M37,6.6C37,6.6,37,6.6,37,6.6c-0.2-0.2-0.4-0.4-0.6-0.5c-0.2,0-0.4,0.1-0.6,0
					c-0.4,0-0.8-0.1-1.3-0.1c0,0.1,0,0.1,0,0.1s1.1,0.4,2.4,0.8c0,0,0,0,0,0C36.9,6.8,36.9,6.7,37,6.6z"/>
				
					<linearGradient id="XMLID_354_" gradientUnits="userSpaceOnUse" x1="-20.9578" y1="-221.4915" x2="-15.4045" y2="-221.4915" gradientTransform="matrix(0.4662 -0.8847 0.8847 0.4662 244.1466 92.8907)">
					<stop  offset="0" style="stop-color:#FFFFFF"/>
					<stop  offset="0.9839" style="stop-color:#80CCEA"/>
				</linearGradient>
				<path id="XMLID_42_" class="st207" d="M39.7,3.8c-0.1,0-0.1-0.1-0.2-0.1c-0.1,0.1-0.2,0.2-0.2,0.2c-0.1,0.1-0.3,0.4-0.4,0.5
					c0,0,0,0,0,0c0.4,0.1,0.7,0.3,0.7,0.7c0.2-0.1,0.6,0,0.8,0c0.3,0.1,0.6,0.2,0.9,0.4c0.1,0,0,0.1-0.1,0.1
					c-0.3-0.1-0.5-0.3-0.8-0.4c-0.2-0.1-0.5-0.2-0.7-0.1c0,0,0,0,0,0c0,0,0,0,0,0c-0.2,0.2-0.5,0.5-0.7,0.7c0.5,0.2,0.7,0.7,1.2,0.9
					c0,0,0,0,0,0c0.9-0.5,1.4-1.5,1.4-2.1c0-0.1,0-0.1,0-0.2c0,0,0,0,0,0C40.8,4.6,40.3,4.1,39.7,3.8z"/>
				
					<linearGradient id="XMLID_355_" gradientUnits="userSpaceOnUse" x1="-20.9576" y1="-222.0138" x2="-15.4046" y2="-222.0138" gradientTransform="matrix(0.4662 -0.8847 0.8847 0.4662 244.1466 92.8907)">
					<stop  offset="0" style="stop-color:#FFFFFF"/>
					<stop  offset="0.9839" style="stop-color:#80CCEA"/>
				</linearGradient>
				<path id="XMLID_41_" class="st208" d="M39.5,6.7c-0.2-0.2-0.4-0.5-0.7-0.5c0,0,0,0,0,0c-0.1,0.1-0.3,0.2-0.4,0.2
					C38.1,6.4,37,6.6,37,6.9c0,0,0,0,0,0c0.5,0.1,1,0.2,1.5,0.3c0.5,0.1,1,0,1.4-0.2C39.8,6.9,39.6,6.8,39.5,6.7z"/>
				
					<linearGradient id="XMLID_356_" gradientUnits="userSpaceOnUse" x1="-20.9579" y1="-225.4458" x2="-15.4046" y2="-225.4458" gradientTransform="matrix(0.4662 -0.8847 0.8847 0.4662 244.1466 92.8907)">
					<stop  offset="0" style="stop-color:#FFFFFF"/>
					<stop  offset="0.9839" style="stop-color:#80CCEA"/>
				</linearGradient>
				<path id="XMLID_40_" class="st209" d="M35.8,6c0.2,0,0.4,0,0.6,0c-0.2-0.2-0.4-0.4-0.5-0.7c-0.4,0.2-0.9,0.3-1.4,0.4
					c-0.1,0-0.1-0.1,0-0.1c0.5,0,0.9-0.1,1.3-0.4c0,0,0-0.1,0.1,0c0.4-0.2,0.8-0.6,1-1c-0.9,0.1-2.2,0.3-2.6,1.2c0,0,0,0,0,0
					c0.2,0.2,0.3,0.4,0.3,0.5c0,0,0,0,0,0C34.9,5.9,35.3,6,35.8,6z"/>
				
					<linearGradient id="XMLID_357_" gradientUnits="userSpaceOnUse" x1="-20.9577" y1="-222.7391" x2="-15.4048" y2="-222.7391" gradientTransform="matrix(0.4662 -0.8847 0.8847 0.4662 244.1466 92.8907)">
					<stop  offset="0" style="stop-color:#FFFFFF"/>
					<stop  offset="0.9839" style="stop-color:#80CCEA"/>
				</linearGradient>
				<path id="XMLID_39_" class="st210" d="M38.7,3.2c0.2,0.1,0.3,0.2,0.5,0.3c0.1,0,0.2,0.1,0.3,0.1c0.3-0.2,0.7-0.4,1.1-0.5
					c0,0,0,0,0,0c-0.4-0.3-0.9-0.6-1.5-0.8c0,0,0,0,0,0C38.9,2.7,38.8,2.9,38.7,3.2z"/>
				
					<linearGradient id="XMLID_358_" gradientUnits="userSpaceOnUse" x1="-20.9574" y1="-224.8328" x2="-15.4047" y2="-224.8328" gradientTransform="matrix(0.4662 -0.8847 0.8847 0.4662 244.1466 92.8907)">
					<stop  offset="0" style="stop-color:#FFFFFF"/>
					<stop  offset="0.9839" style="stop-color:#80CCEA"/>
				</linearGradient>
				<path id="XMLID_38_" class="st211" d="M35.7,4.2C35.7,4.2,35.7,4.2,35.7,4.2c0.4-0.1,0.8-0.2,1.1-0.2C37,3.7,37.1,3.3,37,2.9
					c0-0.1,0.1-0.1,0.1,0c0,0.1,0,0.2,0,0.3c0.3-0.1,0.7-0.2,1-0.2c0.2,0,0.3,0.1,0.4,0.1c0.1-0.3,0.3-0.5,0.4-0.8c0,0,0,0,0,0
					c0,0,0,0,0,0c-0.9-0.2-2.2,0.5-3.3,1.3c0,0,0,0,0,0C35.8,3.8,35.9,4.1,35.7,4.2z"/>
				
					<linearGradient id="XMLID_359_" gradientUnits="userSpaceOnUse" x1="-20.9569" y1="-226.2996" x2="-15.4048" y2="-226.2996" gradientTransform="matrix(0.4662 -0.8847 0.8847 0.4662 244.1466 92.8907)">
					<stop  offset="0" style="stop-color:#FFFFFF"/>
					<stop  offset="0.9839" style="stop-color:#80CCEA"/>
				</linearGradient>
				<path id="XMLID_37_" class="st212" d="M35.7,4.2C35.7,4.2,35.6,4.2,35.7,4.2c0-0.1,0-0.2,0-0.3c0-0.1,0-0.2-0.1-0.2
					c-1,0.7-1.7,1.5-1.7,1.5c0.1,0.1,0.2,0.1,0.2,0.2c0,0,0,0,0,0C34.4,4.7,35,4.4,35.7,4.2z"/>
				
					<linearGradient id="XMLID_360_" gradientUnits="userSpaceOnUse" x1="-20.9574" y1="-223.5199" x2="-15.405" y2="-223.5199" gradientTransform="matrix(0.4662 -0.8847 0.8847 0.4662 244.1466 92.8907)">
					<stop  offset="0" style="stop-color:#FFFFFF"/>
					<stop  offset="0.9839" style="stop-color:#80CCEA"/>
				</linearGradient>
				<path id="XMLID_36_" class="st213" d="M37,4.1C37,4.1,37,4.1,37,4.1c-0.3,0.5-0.6,0.8-1.1,1.1C36,5.5,36.2,5.7,36.4,6
					c0.2,0,0.5-0.1,0.7-0.2c0.8-0.3,1.5-0.5,2.3-0.5C39.2,4.3,37.8,4.5,37,4.1C37,4.1,37,4.1,37,4.1z"/>
				
					<linearGradient id="XMLID_361_" gradientUnits="userSpaceOnUse" x1="-20.9577" y1="-221.5553" x2="-15.4047" y2="-221.5553" gradientTransform="matrix(0.4662 -0.8847 0.8847 0.4662 244.1466 92.8907)">
					<stop  offset="0" style="stop-color:#FFFFFF"/>
					<stop  offset="0.9839" style="stop-color:#80CCEA"/>
				</linearGradient>
				<path id="XMLID_35_" class="st214" d="M40.6,3.3c-0.4,0.1-0.7,0.2-1,0.4c0.2,0.1,0.5,0.2,0.7,0.4c0.3,0.2,0.7,0.4,1.1,0.4
					C41.3,4,41.1,3.6,40.6,3.3C40.7,3.2,40.7,3.3,40.6,3.3z"/>
				
					<linearGradient id="XMLID_362_" gradientUnits="userSpaceOnUse" x1="-20.9588" y1="-223.1875" x2="-15.404" y2="-223.1875" gradientTransform="matrix(0.4662 -0.8847 0.8847 0.4662 244.1466 92.8907)">
					<stop  offset="0" style="stop-color:#FFFFFF"/>
					<stop  offset="0.9839" style="stop-color:#80CCEA"/>
				</linearGradient>
				<path id="XMLID_34_" class="st215" d="M38,4.3c0.3,0,0.5,0.1,0.8,0.2c0,0,0-0.1,0-0.1c0.1,0,0.3-0.3,0.3-0.4
					c0.1-0.1,0.2-0.2,0.3-0.3c0,0,0,0,0,0c-0.1,0-0.2-0.1-0.3-0.2c-0.1-0.1-0.3-0.2-0.4-0.3C38.5,3.6,38.3,4,38,4.3z"/>
				
					<linearGradient id="XMLID_363_" gradientUnits="userSpaceOnUse" x1="-20.9576" y1="-223.0206" x2="-15.4048" y2="-223.0206" gradientTransform="matrix(0.4662 -0.8847 0.8847 0.4662 244.1466 92.8907)">
					<stop  offset="0" style="stop-color:#FFFFFF"/>
					<stop  offset="0.9839" style="stop-color:#80CCEA"/>
				</linearGradient>
				<path id="XMLID_33_" class="st216" d="M37,5.9c-0.1,0-0.3,0.1-0.4,0.1c0.2,0.2,0.4,0.3,0.6,0.5c0,0,0,0,0,0
					c0.2-0.1,0.6-0.2,0.7-0.2c0.3-0.1,0.6-0.1,0.8-0.3c0.3-0.2,0.5-0.5,0.8-0.8C38.6,5.3,37.8,5.7,37,5.9z"/>
				
					<linearGradient id="XMLID_364_" gradientUnits="userSpaceOnUse" x1="-20.9572" y1="-224.2989" x2="-15.4041" y2="-224.2989" gradientTransform="matrix(0.4662 -0.8847 0.8847 0.4662 244.1466 92.8907)">
					<stop  offset="0" style="stop-color:#FFFFFF"/>
					<stop  offset="0.9839" style="stop-color:#80CCEA"/>
				</linearGradient>
				<path id="XMLID_32_" class="st217" d="M37.9,4.2c0.2-0.3,0.4-0.7,0.6-1c-0.5-0.2-0.9-0.1-1.4,0.1c0,0,0,0,0,0
					c0,0.3,0,0.5-0.1,0.7C37.3,4.1,37.6,4.2,37.9,4.2C37.9,4.2,37.9,4.2,37.9,4.2z"/>
				<path id="XMLID_31_" class="st218" d="M40.6,3.2C40.6,3.2,40.6,3.2,40.6,3.2C40.6,3.2,40.6,3.2,40.6,3.2z"/>
				<path id="XMLID_25_" class="st218" d="M40.6,3.2c-0.4,0.1-0.8,0.2-1.1,0.5c-0.1,0-0.2-0.1-0.3-0.1c-0.2-0.1-0.4-0.2-0.5-0.3
					c0.1-0.3,0.3-0.5,0.4-0.8c0,0,0,0,0,0c0,0-0.1,0-0.1,0c0,0,0,0,0,0c-0.1,0.3-0.3,0.5-0.4,0.8C38.5,3.1,38.3,3,38.2,3
					c-0.3,0-0.7,0.1-1,0.2c0-0.1,0-0.2,0-0.3c0-0.1-0.1,0-0.1,0c0.1,0.4,0,0.8-0.1,1.1c-0.4,0-0.8,0.1-1.1,0.2c0,0,0,0,0,0
					c0.1-0.1,0.1-0.4,0-0.6c0,0,0,0,0,0c0,0-0.1,0-0.1,0.1c0,0.1,0,0.2,0.1,0.2c0,0.1,0,0.2,0,0.2c0,0,0,0.1-0.1,0.1
					c-0.7,0.2-1.2,0.5-1.5,1.1c0,0,0,0,0,0c0,0,0,0,0.1,0.1c0,0,0,0,0,0c0.5-0.9,1.7-1.1,2.6-1.2c-0.2,0.4-0.6,0.7-1,1
					c-0.1,0.1-0.9,0.4-1.4,0.4c-0.1,0-0.1,0.1,0,0.1c0.5,0,0.9-0.2,1.4-0.4c0.1,0.3,0.3,0.5,0.5,0.7c-0.2,0-0.4,0-0.6,0
					c-0.4,0-0.8-0.1-1.3-0.1c0,0,0,0,0,0c0,0,0,0.1,0,0.1c0.4,0,0.8,0.1,1.3,0.1c0.2,0,0.4,0,0.6,0c0.2,0.2,0.4,0.4,0.6,0.5
					c0,0,0,0,0,0c-0.1,0.1-0.2,0.1-0.1,0.3c0,0,0,0,0,0c0,0,0.1,0,0.1,0c0,0,0,0,0,0c0-0.3,1.1-0.4,1.4-0.5c0.2,0,0.3-0.1,0.4-0.2
					c0,0,0,0,0,0c0.3,0.1,0.5,0.4,0.7,0.5C39.6,6.8,39.8,6.9,40,7c0,0,0.1,0,0.1-0.1c0,0,0,0,0,0c-0.5-0.1-0.7-0.7-1.2-0.9
					c0.3-0.2,0.5-0.5,0.7-0.7c0,0,0,0,0,0c0,0,0,0,0,0c0.2-0.1,0.5,0,0.7,0.1c0.3,0.1,0.5,0.2,0.8,0.4c0.1,0,0.1-0.1,0.1-0.1
					c-0.3-0.2-0.6-0.3-0.9-0.4c-0.2-0.1-0.6-0.2-0.8,0c-0.1-0.4-0.4-0.6-0.7-0.7c0,0,0,0,0,0c0.2,0,0.3-0.3,0.4-0.5
					c0.1-0.1,0.2-0.2,0.2-0.2c0.1,0,0.1,0.1,0.2,0.1c0.6,0.3,1,0.7,1.7,0.7c0,0,0,0,0,0c0,0,0-0.1,0-0.1c-0.4,0-0.8-0.2-1.1-0.4
					c-0.2-0.2-0.5-0.3-0.7-0.4c0.3-0.2,0.7-0.4,1-0.4C40.7,3.3,40.7,3.2,40.6,3.2C40.6,3.2,40.6,3.2,40.6,3.2
					C40.6,3.2,40.6,3.2,40.6,3.2z M37,4c0.1-0.2,0.1-0.5,0.1-0.7c0,0,0,0,0,0c0.5-0.1,0.9-0.2,1.4-0.1c-0.2,0.4-0.4,0.7-0.6,1
					c0,0,0,0,0,0C37.6,4.2,37.3,4.1,37,4z M38.7,6.1c-0.2,0.2-0.6,0.2-0.8,0.3c-0.1,0-0.5,0.1-0.7,0.2c0,0,0,0,0,0
					c-0.2-0.2-0.4-0.3-0.6-0.5C36.7,6,36.8,6,37,5.9c0.8-0.3,1.6-0.6,2.5-0.6C39.2,5.6,39,5.9,38.7,6.1z M39.5,5.2
					c-0.8,0-1.5,0.3-2.3,0.5c-0.2,0.1-0.5,0.2-0.7,0.2c-0.2-0.2-0.4-0.4-0.5-0.7C36.4,5,36.7,4.6,37,4.1c0,0,0,0,0.1,0c0,0,0,0,0,0
					C37.8,4.5,39.2,4.3,39.5,5.2z M39.1,3.5c0.1,0.1,0.2,0.1,0.3,0.2c0,0,0,0,0,0c-0.1,0.1-0.2,0.2-0.3,0.3
					c-0.1,0.1-0.2,0.4-0.3,0.4c-0.1,0-0.1,0-0.1,0.1c-0.2-0.1-0.4-0.1-0.7-0.1c0.2-0.3,0.4-0.7,0.6-1C38.8,3.3,38.9,3.5,39.1,3.5z"
					/>
			</g>
			<g id="XMLID_4_" class="st205">
				
					<linearGradient id="XMLID_365_" gradientUnits="userSpaceOnUse" x1="306.183" y1="-225.6124" x2="311.7368" y2="-225.6124" gradientTransform="matrix(-0.4662 0.8847 0.8847 0.4662 377.7275 -158.6636)">
					<stop  offset="0" style="stop-color:#FFFFFF"/>
					<stop  offset="0.9839" style="stop-color:#80CCEA"/>
				</linearGradient>
				<path id="XMLID_23_" class="st219" d="M36.2,8.3C36.2,8.3,36.2,8.3,36.2,8.3c-0.3-0.1-0.5-0.2-0.8-0.2c-0.1-0.2-0.2-0.4-0.3-0.6
					c-0.3-0.3-0.6-0.6-0.8-1c0,0,0.1-0.1,0.1-0.1s1,0.7,2,1.5c0,0,0,0,0,0C36.2,8.1,36.2,8.2,36.2,8.3z"/>
				
					<linearGradient id="XMLID_366_" gradientUnits="userSpaceOnUse" x1="306.183" y1="-222.4014" x2="311.7361" y2="-222.4014" gradientTransform="matrix(-0.4662 0.8847 0.8847 0.4662 377.7275 -158.6636)">
					<stop  offset="0" style="stop-color:#FFFFFF"/>
					<stop  offset="0.9839" style="stop-color:#80CCEA"/>
				</linearGradient>
				<path id="XMLID_22_" class="st220" d="M35.4,12.1c-0.1,0-0.1-0.1-0.2-0.1c0-0.1,0-0.2,0.1-0.3c0-0.1,0.2-0.5,0.1-0.6
					c0,0,0,0,0,0c0.3,0.2,0.6,0.4,1,0.2c0,0.3,0.3,0.5,0.5,0.6c0.3,0.2,0.5,0.4,0.8,0.5c0.1,0,0.1-0.1,0.1-0.1
					c-0.3-0.1-0.5-0.3-0.8-0.5c-0.2-0.1-0.5-0.3-0.5-0.6c0,0,0,0,0,0c0,0,0,0,0,0c0.1-0.3,0.2-0.7,0.2-1c0.4,0.3,1,0.1,1.4,0.5
					c0,0,0,0,0,0c0.1,1-0.4,2-1,2.3C37.1,13,37,13,37,13.1c0,0,0,0,0,0C36.6,12.5,35.9,12.4,35.4,12.1z"/>
				
					<linearGradient id="XMLID_367_" gradientUnits="userSpaceOnUse" x1="306.1828" y1="-222.9233" x2="311.7376" y2="-222.9233" gradientTransform="matrix(-0.4662 0.8847 0.8847 0.4662 377.7275 -158.6636)">
					<stop  offset="0" style="stop-color:#FFFFFF"/>
					<stop  offset="0.9839" style="stop-color:#80CCEA"/>
				</linearGradient>
				<path id="XMLID_21_" class="st221" d="M37.6,10.2c-0.3-0.1-0.6-0.1-0.8-0.2c0,0,0,0,0,0c0-0.2,0-0.3-0.1-0.5
					c-0.1-0.2-0.6-1.3-0.3-1.4c0,0,0,0,0,0c0.4,0.3,0.8,0.7,1.1,1.1c0.4,0.4,0.6,0.9,0.6,1.3C38,10.4,37.8,10.3,37.6,10.2z"/>
				
					<linearGradient id="XMLID_368_" gradientUnits="userSpaceOnUse" x1="306.1828" y1="-226.3554" x2="311.7357" y2="-226.3554" gradientTransform="matrix(-0.4662 0.8847 0.8847 0.4662 377.7275 -158.6636)">
					<stop  offset="0" style="stop-color:#FFFFFF"/>
					<stop  offset="0.9839" style="stop-color:#80CCEA"/>
				</linearGradient>
				<path id="XMLID_20_" class="st222" d="M34.9,7.6C35,7.7,35.1,7.9,35.2,8c-0.3,0-0.6-0.1-0.9,0c-0.1-0.5-0.2-0.9-0.5-1.3
					c0-0.1-0.1,0-0.1,0.1c0.2,0.4,0.4,0.8,0.5,1.3c0,0,0,0.1,0,0.1c0,0.5,0,1-0.3,1.4c-0.4-0.8-0.9-2-0.5-2.9c0,0,0,0,0,0
					c0.3,0.1,0.5,0,0.6,0c0,0,0,0,0,0C34.4,6.9,34.7,7.2,34.9,7.6z"/>
				
					<linearGradient id="XMLID_369_" gradientUnits="userSpaceOnUse" x1="306.183" y1="-223.6491" x2="311.7364" y2="-223.6491" gradientTransform="matrix(-0.4662 0.8847 0.8847 0.4662 377.7275 -158.6636)">
					<stop  offset="0" style="stop-color:#FFFFFF"/>
					<stop  offset="0.9839" style="stop-color:#80CCEA"/>
				</linearGradient>
				<path id="XMLID_19_" class="st223" d="M34.3,11.6c0.2,0.1,0.4,0.2,0.6,0.3c0.1,0.1,0.2,0.1,0.3,0.2c0,0.4,0.1,0.8,0.2,1.2
					c0,0,0,0,0,0c-0.5-0.1-1-0.4-1.5-0.8c0,0,0,0,0,0C34,12.1,34.1,11.8,34.3,11.6z"/>
				
					<linearGradient id="XMLID_370_" gradientUnits="userSpaceOnUse" x1="306.1836" y1="-225.7428" x2="311.7362" y2="-225.7428" gradientTransform="matrix(-0.4662 0.8847 0.8847 0.4662 377.7275 -158.6636)">
					<stop  offset="0" style="stop-color:#FFFFFF"/>
					<stop  offset="0.9839" style="stop-color:#80CCEA"/>
				</linearGradient>
				<path id="XMLID_18_" class="st224" d="M33.5,8.6C33.5,8.6,33.5,8.6,33.5,8.6c0.1,0.4,0.3,0.7,0.5,1.1c-0.2,0.3-0.5,0.6-0.9,0.7
					c-0.1,0,0,0.1,0,0.1c0.1,0,0.2-0.1,0.3-0.1c0.1,0.3,0.2,0.7,0.5,1c0.1,0.1,0.2,0.2,0.3,0.3c-0.1,0.3-0.3,0.5-0.4,0.8
					c0,0,0,0,0,0c0,0,0,0,0,0c-0.7-0.6-0.8-2.1-0.8-3.4c0,0,0,0,0,0C33.1,8.8,33.4,8.7,33.5,8.6z"/>
				
					<linearGradient id="XMLID_371_" gradientUnits="userSpaceOnUse" x1="306.1828" y1="-227.2089" x2="311.7376" y2="-227.2089" gradientTransform="matrix(-0.4662 0.8847 0.8847 0.4662 377.7275 -158.6636)">
					<stop  offset="0" style="stop-color:#FFFFFF"/>
					<stop  offset="0.9839" style="stop-color:#80CCEA"/>
				</linearGradient>
				<path id="XMLID_17_" class="st225" d="M33.4,8.5C33.4,8.5,33.4,8.5,33.4,8.5c-0.1,0.1-0.2,0.1-0.2,0.2c-0.1,0-0.1,0.1-0.2,0.1
					c0.1-1.2,0.2-2.3,0.2-2.3c0.1,0,0.2,0.1,0.2,0.1c0,0,0,0,0,0C33.1,7.2,33.2,7.9,33.4,8.5z"/>
				
					<linearGradient id="XMLID_372_" gradientUnits="userSpaceOnUse" x1="306.183" y1="-224.4297" x2="311.7365" y2="-224.4297" gradientTransform="matrix(-0.4662 0.8847 0.8847 0.4662 377.7275 -158.6636)">
					<stop  offset="0" style="stop-color:#FFFFFF"/>
					<stop  offset="0.9839" style="stop-color:#80CCEA"/>
				</linearGradient>
				<path id="XMLID_16_" class="st226" d="M34.1,9.7C34.1,9.7,34.1,9.6,34.1,9.7c0.2-0.5,0.3-1,0.3-1.5c0.3,0,0.6,0,0.9,0
					c0.1,0.2,0.2,0.5,0.2,0.7c0.2,0.8,0.4,1.5,0.9,2.2C35.4,11.4,34.8,10.1,34.1,9.7C34.1,9.7,34.1,9.7,34.1,9.7z"/>
				
					<linearGradient id="XMLID_373_" gradientUnits="userSpaceOnUse" x1="306.1839" y1="-222.4654" x2="311.7363" y2="-222.4654" gradientTransform="matrix(-0.4662 0.8847 0.8847 0.4662 377.7275 -158.6636)">
					<stop  offset="0" style="stop-color:#FFFFFF"/>
					<stop  offset="0.9839" style="stop-color:#80CCEA"/>
				</linearGradient>
				<path id="XMLID_15_" class="st227" d="M35.4,13.1c-0.1-0.3-0.2-0.7-0.2-1.1c0.2,0.1,0.5,0.3,0.7,0.4c0.4,0.2,0.7,0.3,1,0.7
					C36.4,13.3,35.9,13.3,35.4,13.1C35.4,13.2,35.4,13.2,35.4,13.1z"/>
				
					<linearGradient id="XMLID_374_" gradientUnits="userSpaceOnUse" x1="306.1811" y1="-224.0974" x2="311.7368" y2="-224.0974" gradientTransform="matrix(-0.4662 0.8847 0.8847 0.4662 377.7275 -158.6636)">
					<stop  offset="0" style="stop-color:#FFFFFF"/>
					<stop  offset="0.9839" style="stop-color:#80CCEA"/>
				</linearGradient>
				<path id="XMLID_14_" class="st228" d="M34.8,10.4c0.2,0.2,0.4,0.4,0.6,0.5c0,0-0.1,0-0.1,0.1c0,0.1-0.1,0.4-0.1,0.5
					c0,0.1-0.1,0.2-0.1,0.4c0,0,0,0,0,0c-0.1-0.1-0.2-0.1-0.3-0.2c-0.2-0.1-0.3-0.1-0.5-0.2C34.5,11.2,34.7,10.8,34.8,10.4z"/>
				
					<linearGradient id="XMLID_375_" gradientUnits="userSpaceOnUse" x1="306.1833" y1="-223.9301" x2="311.736" y2="-223.9301" gradientTransform="matrix(-0.4662 0.8847 0.8847 0.4662 377.7275 -158.6636)">
					<stop  offset="0" style="stop-color:#FFFFFF"/>
					<stop  offset="0.9839" style="stop-color:#80CCEA"/>
				</linearGradient>
				<path id="XMLID_13_" class="st229" d="M35.5,8.6c0-0.2-0.1-0.3-0.1-0.4c0.2,0.1,0.5,0.1,0.7,0.2c0,0,0,0,0,0
					c0,0.3,0.2,0.6,0.2,0.7c0.1,0.3,0.2,0.6,0.2,0.9c0,0.4-0.1,0.7-0.2,1.1C36,10.3,35.8,9.5,35.5,8.6z"/>
				
					<linearGradient id="XMLID_376_" gradientUnits="userSpaceOnUse" x1="306.1831" y1="-225.2089" x2="311.7365" y2="-225.2089" gradientTransform="matrix(-0.4662 0.8847 0.8847 0.4662 377.7275 -158.6636)">
					<stop  offset="0" style="stop-color:#FFFFFF"/>
					<stop  offset="0.9839" style="stop-color:#80CCEA"/>
				</linearGradient>
				<path id="XMLID_12_" class="st230" d="M34.7,10.4c-0.1,0.4-0.3,0.7-0.5,1.1c-0.4-0.3-0.6-0.7-0.7-1.2c0,0,0,0,0,0
					c0.2-0.1,0.4-0.3,0.5-0.5C34.2,9.9,34.5,10.1,34.7,10.4C34.7,10.4,34.7,10.4,34.7,10.4z"/>
				<path id="XMLID_11_" class="st218" d="M35.3,13.2C35.3,13.2,35.4,13.2,35.3,13.2C35.4,13.2,35.3,13.2,35.3,13.2z"/>
				<path id="XMLID_5_" class="st218" d="M35.3,13.2C35.3,13.2,35.4,13.2,35.3,13.2C35.4,13.2,35.4,13.2,35.3,13.2
					c-0.1-0.4-0.2-0.8-0.2-1.1c0.2,0.1,0.5,0.3,0.7,0.4c0.4,0.2,0.7,0.3,1,0.7c0,0,0.1,0,0.1,0c0,0,0,0,0,0c-0.4-0.6-1-0.7-1.6-1
					c-0.1,0-0.1-0.1-0.2-0.1c0-0.1,0-0.2,0.1-0.3c0-0.1,0.2-0.5,0.1-0.6c0,0,0,0,0,0c0.3,0.2,0.6,0.4,1,0.2c0,0.3,0.3,0.5,0.5,0.6
					c0.3,0.2,0.5,0.4,0.8,0.5c0.1,0,0.1-0.1,0.1-0.1c-0.3-0.1-0.5-0.3-0.8-0.5c-0.2-0.1-0.5-0.3-0.5-0.6c0,0,0,0,0,0c0,0,0,0,0,0
					c0.1-0.3,0.2-0.7,0.2-1c0.4,0.3,1,0.1,1.4,0.5c0,0,0,0,0,0c0-0.1,0-0.1,0-0.2c-0.2-0.1-0.4-0.2-0.6-0.3
					c-0.3-0.1-0.6-0.1-0.8-0.2c0,0,0,0,0,0c0-0.2,0-0.3-0.1-0.5c-0.1-0.2-0.6-1.3-0.3-1.4c0,0,0,0,0,0c0,0-0.1,0-0.1-0.1
					c0,0,0,0,0,0c-0.1,0-0.1,0.1-0.1,0.3c0,0,0,0,0,0c-0.3-0.1-0.5-0.2-0.8-0.2c-0.1-0.2-0.2-0.4-0.3-0.6c-0.3-0.3-0.6-0.6-0.8-1
					c0,0-0.1,0-0.1,0c0,0,0,0,0,0c0.2,0.4,0.5,0.6,0.8,1C35,7.7,35.1,7.9,35.2,8c-0.3,0-0.6-0.1-0.9,0c-0.1-0.5-0.2-0.9-0.5-1.3
					c0-0.1-0.1,0-0.1,0.1C34,7.2,34.3,8,34.3,8.1c0,0.5,0,1-0.3,1.4c-0.4-0.8-0.9-2-0.5-2.9c0,0,0,0,0,0c0,0-0.1,0-0.1,0
					c0,0,0,0,0,0c-0.3,0.6-0.3,1.2,0,1.8c0,0.1-0.1,0.1-0.1,0.1c0,0.1-0.1,0.1-0.2,0.1c-0.1,0-0.1,0.1-0.2,0.1c0,0,0,0.1,0,0.1
					c0,0,0,0,0,0c0.2,0,0.4-0.1,0.5-0.3c0,0,0,0,0,0c0.1,0.4,0.3,0.7,0.5,1.1c-0.2,0.3-0.5,0.6-0.9,0.7c-0.1,0,0,0.1,0,0.1
					c0.1,0,0.2-0.1,0.3-0.1c0.1,0.3,0.2,0.7,0.5,1c0.1,0.1,0.2,0.2,0.3,0.3c-0.1,0.3-0.3,0.5-0.4,0.8c0,0,0,0,0,0c0,0,0.1,0,0.1,0.1
					c0,0,0,0,0,0c0.1-0.3,0.3-0.5,0.4-0.8c0.2,0.1,0.4,0.2,0.6,0.3c0.1,0.1,0.2,0.1,0.3,0.2C35.1,12.4,35.1,12.8,35.3,13.2
					C35.3,13.2,35.3,13.2,35.3,13.2z M34.7,10.4C34.7,10.4,34.7,10.4,34.7,10.4c-0.1,0.4-0.3,0.8-0.5,1.1c-0.4-0.3-0.6-0.7-0.7-1.2
					c0,0,0,0,0,0c0.2-0.1,0.4-0.3,0.5-0.5C34.2,9.9,34.5,10.1,34.7,10.4z M36.5,11c-0.5-0.7-0.7-1.6-0.9-2.4c0-0.2-0.1-0.3-0.1-0.4
					c0.2,0.1,0.5,0.1,0.7,0.2c0,0,0,0,0,0c0,0.3,0.2,0.6,0.2,0.7c0.1,0.3,0.2,0.6,0.2,0.9C36.6,10.3,36.5,10.7,36.5,11z M34.1,9.7
					C34.1,9.7,34.1,9.7,34.1,9.7C34.1,9.7,34.1,9.6,34.1,9.7c0.2-0.5,0.3-1,0.3-1.6c0.3,0,0.6,0,0.9,0c0.1,0.2,0.2,0.5,0.2,0.7
					c0.2,0.8,0.4,1.5,0.9,2.2C35.4,11.4,34.8,10.1,34.1,9.7z M34.3,11.5c0.2-0.3,0.4-0.7,0.5-1.1c0.2,0.2,0.3,0.3,0.5,0.5
					c0,0,0,0.1,0,0.1c0,0.1-0.1,0.4-0.1,0.5c0,0.1-0.1,0.2-0.1,0.4c0,0,0,0,0,0c-0.1-0.1-0.2-0.1-0.3-0.2
					C34.6,11.6,34.4,11.6,34.3,11.5z"/>
			</g>
		</g>
	</g>
</g>
</svg>
